<svg xmlns="http://www.w3.org/2000/svg" viewBox="0 0 801.4 768"><linearGradient id="a" gradientUnits="userSpaceOnUse" x1="387.7" y1="507.5" x2="387.7" y2="263.1"><stop offset="0" style="stop-color:#e0003f"/><stop offset=".5" style="stop-color:#ff4a4a"/><stop offset="1" style="stop-color:#ffb578"/></linearGradient><path d="M395.6 507.4c-46.3 1.5-87.4-18.5-97.7-46.9-6-16.7-34.3-196-34.3-196l65.2 1 137-2.4 46 4.9s-23.6 179.8-29.5 195c-6 15.4-33.7 42.7-86.7 44.4z" fill="url(#a)"/><path d="M263.6 264.6c-.7-8 31.6-2.5 84.8-2.1 15.8 0 85.9-4.8 99.5-4.1 45.7 2 64.4 4.2 64 9.6-.3 3-19.2-3-57-1.7-32.6 1-74.5 8.7-105 8.5-66-.5-85.8-4.2-86.3-10.2z" fill="#ffc9a8"/><path d="M424.3 254.9c-7 4.5-14.6 5.5-22.6 4.8l-.1-.6c1.5-3.7 1.7-8.9 4.7-10.9 2.7-1.7 7.4-.5 11.2-.5a73 73 0 0 1 36.4 8 34.7 34.7 0 0 1 13.3 13.1 88.1 88.1 0 0 1 11.6 42.7 77.4 77.4 0 0 1-11 38.5c-4 7.7-7.6 15.7-13.5 22.2a85.7 85.7 0 0 1-46.6 26c-17.3 3.7-34 .6-49.4-7.4a102.3 102.3 0 0 1-52.7-58.8c-4.7-13.8-7.4-28-1.8-42.5.6-1.6.6-3.5.8-5.3a54.5 54.5 0 0 1 44.7-46.7 49 49 0 0 1 31 4.9c3.3 1.5 6.3 3.5 9.5 5.1 3.7 2 .2 3.9-.2 5.6-.5 2.4-2.2 1-3.3.3-2.8-1.8-5.8-3.3-8-6-1-1.3-2.5-1.5-3.8-.3-1.2 1.2-1.1 2.5-.2 3.9l.5.5a39.6 39.6 0 0 0 46.2 8c1.9-1 3-2.4 3.3-4.6z" fill="#f31d1d"/><path d="M456.7 274c9.8 4.2 13.8 24 10.8 34.3-2 6.8-7.2 8.4-12.5 3.7-3.1-2.8.4-9.8-3.3-20.2a29.5 29.5 0 0 0-7-10c-1.9-1.8-4-4-2.4-6.8s4.5-3.2 7.5-2.9c2.4.3 4.7 1 7 2z" fill="#fc7e83"/><path d="M421.6 302.9c0 2.3-.6 5-1.8 8a9 9 0 0 1-4.3 5c-4.4 2-10.3 0-13.3-3a10 10 0 0 1-2.7-6.8v-.1c0-1.3 0-2.7.5-3.7.8-1.3 2.5-3.5 3.5-4.5A13.7 13.7 0 0 1 414 294c4.9.2 7.4 4.6 7.5 8.9zm-55.1 7.9c1.6-1.2 3-3.1 3.7-5.5 1.5-4.5 1.7-10.3-2-13.2-2-1.6-4.3-2.4-6.5-2.4a38 38 0 0 0-6.5 1c-1.2.3-2.2 1.3-3.2 2.3a27.7 27.7 0 0 0-3 3.3c-1.6 2.3-1.6 5.2-1.4 8 0 1 .6 1.6 1.3 2.3l.2.2c1 1 1.9 1.8 2.9 2.4 2 1.1 4.4 2 7.4 2.6 2.8.6 5.2.3 7-1z" fill="#fff"/><path d="M405.7 239.8c-2.3 5.8-4.4 11.6-6.4 17.5-.7 2-1.5 2-3.1 1.5-5.2-1.6-5.4-2.2-3-7 7.7-15.6 10-22.3 16.6-38.4 4.8-11.9 13.4-19.3 9.5-42.4-1-5.3-3.5-7-7.7-10.8-5.2-4.7-4.3-8.4-5.1-13.7-.9-5.5-.4-11 .7-16.4.3-1.6.6-2.9 3.1-1.7 3.2 1.4 6.8.6 10.8.2a43.5 43.5 0 0 0 1 27.9c9.6 26.4 2 37.6-16.4 83.3zM423 123.3c-4.9 1.8-9 1-13.8 1 4.7-2.5 8.7-2.1 13.8-1z" fill="#1bc43f"/><path d="M411.5 320.7c.9 0 1.7-.1 2.5-.3a12 12 0 0 0 7.7-4.7 23 23 0 0 0 3.6-9.6c1-5.8-1-12.8-7.1-15.3a13.3 13.3 0 0 0-10.5.2h-.2c-2.4 1.3-4.7 2.4-6.8 4.2-.6.4-3 3.3-3.4 3.8a9.8 9.8 0 0 0-1.7 4.8c-.3 3.2.3 6.5 1.7 9.2 2.7 5 8.9 7.7 14.2 7.7zM400 302.3c.8-1.3 2.5-3.5 3.5-4.5A13.7 13.7 0 0 1 414 294c4.9.2 7.4 4.6 7.5 8.9 0 2.3-.6 5-1.8 8a9 9 0 0 1-4.3 5c-4.4 2-10.3 0-13.3-3a10 10 0 0 1-2.7-6.8v-.1c0-1.3 0-2.7.5-3.7zm5.3 0c-.2-2.5 1.2-3.7 2.5-4.5a9 9 0 0 1 1.4-.6h.2a4 4 0 0 1 2-.5c1.6.1 2.7 1 3.5 1.8.8.9 1.4 1.8 1.5 2.8.3 1.4 0 2.7-1 3.8a5.6 5.6 0 0 1-4.3 1.8h-1.4c-2.4-.6-4.3-2.5-4.4-4.7zm-40.8-6.1c.3.7.7 1.7.7 2.9 0 1.5-.7 2.9-1.9 3.7-1 .7-2.1.8-3.2.9h-.6c-1 0-1.7-.1-2.4-.4a5.3 5.3 0 0 1-3.4-5.5c.2-2.4 1.9-4.8 4.5-5h1.5a5.4 5.4 0 0 1 4.8 3.4zm-1-10.3c-3.6-.5-9.1.6-11.9 2.2-2 1.2-3.5 3.1-4.9 4.8a13.6 13.6 0 0 0-3.2 9.4v.5c0 1.3 0 2.8.6 4a9.5 9.5 0 0 0 3 3.6l.1.2c2.6 2.4 5.8 3.6 9 4.5 2.1.7 4 1 5.8 1a11.8 11.8 0 0 0 10.9-6.8c1.3-2.6 2-5.7 2.2-9.4.1-3.7-.7-6.8-2.5-9-2-2.7-5.3-4.4-9.1-5zm6.7 19.4a10 10 0 0 1-3.7 5.5c-1.9 1.3-4.3 1.6-7.1 1-3-.6-5.5-1.5-7.4-2.6-1-.6-2-1.4-2.9-2.4l-.2-.2c-.7-.7-1.3-1.3-1.3-2.2-.2-2.9-.2-5.8 1.4-8 .9-1.2 1.9-2.3 3-3.4 1-1 2-2 3.2-2.3 1.7-.4 5-1 6.5-1 2.2 0 4.6.8 6.5 2.4 3.7 2.9 3.5 8.7 2 13.2zm2.8 16.5c-1.4 0-2.8.7-3.8 1.8-.8 1-1.3 2-1.6 3-.4.8-.8 2-1 3.3a9.5 9.5 0 0 0 9 10.4c1 0 2-.3 3-.7a8 8 0 0 0 4-4.7c.7-1.9.8-3.8.7-5.4a9 9 0 0 0-1-4.8 6.5 6.5 0 0 0-5.1-3h-3l-1.2.1zm3.7 4c1 0 1.8.6 2.2 1 .3.7.4 1.6.4 2.7 0 1.3 0 2.8-.4 4a4 4 0 0 1-2 2.5c-.8.4-2 .3-3 0-2.2-1-3.7-3.4-3.5-5.6.1-.9.4-2.1.7-2.8.2-.7.5-1 .9-1.4v-.1c.3-.3 1.2-.6 1.5-.6l2.3.1.9.1zm-74.4 144c25 27.2 56.3 33.7 90.5 31.6 33.3-2 65.3-7.4 89.8-34.6-27 40-67.1 45.6-109 44-29.5-1.2-55.1-12.5-71.3-41zm184-26.5c.4-34.1 27.5-213.4 33.3-242.4C521 232 501.5 383 486.3 443.3zm-192.8-1.5c-15-44.2-38.4-208-38-238 12 60.8 32 182.7 38 238zm-64-219.8c22.7 125 26.5 156 46.1 278.4 1.7 14 7.6 19.8 18.7 27.3a62.5 62.5 0 0 0 24.9 10.6c13 2.8 35.3 5 48.6 6 48.5 3.2 51.2 3.4 101.4-8.4 16.6-3.9 25.8-5.3 28.4-32.3.6-5.5 1.5-16.7 2.2-22.3 22.8-139.5 39.4-186.5 55-326.5 1.7-15.2-2-21.3-16.4-26a89 89 0 0 0-14.4-3.5c-51.1-9.1-93.9-14.2-143.8-12.5a933 933 0 0 0-81.3 2.4c-25.4 1.6-41.5 6.4-66.1 12.7-10 2.6-15.1 8.2-13.8 19 3 25.6 6 49.7 10.5 75zm36.8-97.3a877.5 877.5 0 0 1 205-3.2 232 232 0 0 1 66.6 15c3.8 1.4 10.6 1.2 10 7-.4 5.4-6.8 5.4-11 6.3a526.1 526.1 0 0 1-74.6 12.7c-12 1.1-23.5 2-35 2.6a206 206 0 0 0-4.8-17.6c-2.8-9 2.2-17.8 3.4-20.7.2-.5.5-.8.8-1.2 1-1.6.6-3-.6-4.2-3.5-3.5-14.8-2.8-18 1.1-7.1 8.8-8.1 27.8-2.3 37.5.8 1.4 4.4 3.2 7.3 5.7a530.8 530.8 0 0 1-172-20.7c-6-1.7-12-4-16.9-10 13.6-7.5 28.1-8.6 42.1-10.3zm139.4 115c-2.3 5.9-4.4 11.7-6.4 17.6-.7 2-1.5 2-3.1 1.5-5.2-1.6-5.4-2.2-3-7 7.7-15.6 10-22.3 16.6-38.4 4.8-11.9 13.4-19.3 9.5-42.4l-.1-.5 6.6-.4c2.7 18.2-5.2 32.6-20.1 69.7zM374.3 251l.5.5a39.6 39.6 0 0 0 46.2 8c1.9-1 3-2.4 3.3-4.6-7 4.5-14.6 5.5-22.6 4.8l-.1-.6c1.5-3.7 1.7-8.9 4.7-10.9 2.7-1.7 7.4-.5 11.2-.5a73 73 0 0 1 36.4 8 34.7 34.7 0 0 1 13.3 13.1 88.1 88.1 0 0 1 11.6 42.7 77.4 77.4 0 0 1-11 38.5c-4 7.7-7.6 15.7-13.5 22.2a85.7 85.7 0 0 1-46.6 26c-17.3 3.7-34 .6-49.4-7.4a102.3 102.3 0 0 1-52.7-58.8c-4.7-13.8-7.4-28-1.8-42.5.6-1.6.6-3.5.8-5.3a54.5 54.5 0 0 1 44.7-46.7 49 49 0 0 1 31 4.9c3.3 1.5 6.3 3.5 9.5 5.1 3.7 2 .2 3.9-.2 5.6-.5 2.4-2.2 1-3.3.3-2.8-1.8-5.8-3.3-8-6-1-1.3-2.5-1.5-3.8-.3-1.2 1.2-1.1 2.5-.2 3.9zm42.7-85.5c-1.3-1.7-3.1-3.2-5.4-5.3-5.2-4.7-4.3-8.4-5.1-13.7-.9-5.5-.4-11 .7-16.4.3-1.6.6-2.9 3.1-1.7 3.2 1.4 6.8.6 10.8.2a43.5 43.5 0 0 0 1 27.9c1.2 3 2 6 2.7 8.7l-7.8.3zm-7.8-41.2c4.7-2.5 8.7-2.1 13.8-1-4.9 1.8-9 1-13.8 1zm-90 43.1c34 4 66 4.9 97.7 3.2.3.8.5 1.6.5 2.5-.4 27 2.4 8.7-22.3 67-2.4 5.7-2.2 5.7-7.3 2.2a54.7 54.7 0 0 0-63 0 66 66 0 0 0-26.4 41.2c-3.6 14.9-4 30 .5 44.6 9.3 30 26.7 53.7 55.9 67.4a96.4 96.4 0 0 0 36.6 9.4 82 82 0 0 0 53.3-17.7 101.9 101.9 0 0 0 36.7-57.1 82.2 82.2 0 0 0-3.1-48.3 52.3 52.3 0 0 0-15.5-25 59.7 59.7 0 0 0-34-12.7c-7.2-.6-21.8.3-21.8.3s13.7-27.7 18-46.3c2.5-11 5.3-15.4 3.3-28.2A765 765 0 0 0 530 155c3.4-.7 6.8-1.5 10.2-2.6 3-.9 5.9-2.1 10-3.7-3.2 19.9-5.6 43.7-8.3 62.8-8 56.6-15.4 80.6-22 124.3-6.6 44-25.3 132.8-30.3 177-.7 6.7-3.8 9.6-9.5 12-35.4 14.3-63.7 16.5-101.3 14.7-23.4-1-37.3-4.4-59.9-9.8-4.4-1-17.8-3-22-4.8-13-5.8-11.9-12.8-13.9-29.6-19.4-131.4-31.3-175.3-51.8-306-2.5-15.7-5.3-31.2-8-46.7 33 17.8 60.3 20.5 96 24.7z"/><path d="M478.3 281.8a65.7 65.7 0 0 0-7.6-16.3c-4.9 0-10.1 0-15.9.2-32.5 1-74.3 8.7-104.8 8.5-20.2-.2-36-.6-48.4-1.3a89 89 0 0 0-3.2 10.6c-3.6 14.9-4 30 .5 44.6 9.3 30 26.7 53.7 55.9 67.4a96.4 96.4 0 0 0 36.6 9.4 82 82 0 0 0 53.3-17.7 101.9 101.9 0 0 0 36.7-57.1 82.2 82.2 0 0 0-3.1-48.3z" opacity=".5" fill="#cc693b"/></svg>
