<svg xmlns="http://www.w3.org/2000/svg" viewBox="0 0 801.4 768"><path d="m284 623.4-5.1 30.3c-3.1-.3-7-2-7.9-2.6a4072.6 4072.6 0 0 0 1.6-17c.4-2.3 1.7-9.4 2.4-14.3l2.5-16.6 4.1-.7-.6 12.5 1-1c4-4 7.7-5.6 13.3-5.9 4.8-.2 7.7.5 11.6 2.8l-2.6 6.4-3-1c-2.1-.6-3.8-1.2-6.4-.8-5.2.7-8.5 3-11 7.9zm259 21.1-.4-7c-3.6 1.4-19.1 6.7-28 2-1.4-.6-2.6-1.3-3.8-2-3.3-1.8-6.4-4-7.2-8.8-1.4-8.6 6.7-12.2 15.7-14.7 6.6-2 17.2-3.1 19.4-3.4l.8-7.5c-1.3-.1-5-.4-9-.4-3.1 0-6.4.2-9 .7h-.3c-7.1 1.5-12.2 2.5-17.5 7.9-6.7 6.8-8.8 13-7.3 21a20.7 20.7 0 0 0 10.4 14.7c6 3.8 10.6 3.6 18.2 3.1 6.6-.4 16.2-4.7 18-5.6zm-81.6-6.3c5.4-.4 10.8-1.6 16-2.7l4.2-.9-1.3-10.5c-8.3 1-16.7 1.7-24.8 2.3l-16.4 1.5.3 12 22-1.7zm240.3-45.5-2.7-5.3-2.7.9v.2c-.1.1-6 11.6-12.9 14.3l-1.3.6c-8 3.3-15 6.2-21.1-4.9-4.3-7.7-5.8-16-4.6-24.8a19.6 19.6 0 0 1 20.4-17.2 53 53 0 0 1 10.5 1.2l.9.2-2.6-8.7 4.3-1.8 9.4 18.8 10.3 23-7.9 3.5zm-9-6.9-5.6-12-5.3-10-7-2.5h-.1c-.5.2-12.3 3.2-13.7 12.3-1 6.4-1.5 9.6 1.7 15.7 4 7.3 8 10.9 13 10.9 2 0 4-.6 6.2-1.6 3.4-1.6 10.3-12 10.6-12.5l.2-.3zm-120 46.2c-6-3.8-10.3-9.5-11.7-15.7-1.7-7.7.2-16.6 4.8-22.5 3.3-4.2 7.6-6.6 12.4-6.8h3.6c13 0 22.4 3.5 26.1 18.2a27 27 0 0 1-2.5 20.8c-3 4.9-7.5 8.2-13 9.5a26 26 0 0 1-19.8-3.5zm2.2-7.5a16 16 0 0 0 13.9 1c9.8-3.7 14.6-11 12.6-19-1.8-7-10.1-13.3-24-10.5-8 1.7-11.4 10.5-10 18a15 15 0 0 0 7.5 10.5zm70.1-6.7-9-23.8-18-47.3-4.6 2.1 15.7 41 11.5 29.3 4.4-1.3zm-469.6-28.2c-4-2.3-7-1.6-10.7-.7a26 26 0 0 1-7.4 1.2h-.7l6.1-17 10.2-26.7-6.5-1-7.6 18.3-6.7 18-7.2 20.6-4.5 15.3 7 2.7 4.7-12.6c2.6-6.7 8-13.2 15.4-11.2a11 11 0 0 1 6.8 5.2c2 3.2 2.4 7.3 1.4 11.4l-4 16.1 4 .2 9-27.6c-.8-5.6-3.4-8.9-9.3-12.2zm31.9 43.2c-6.7-8-7.4-17.5-2.3-27.5 4.9-9.3 12.2-14 22-14h.5c6.8.2 6.8.2 16.7 4l2.8 1c7.6 3 11 10 9.3 18.9l-23.1-4.1-21.7-5.2v.5c-.5 2-1.1 3.6-1.7 5.3-1.4 4.3-2.6 8-.7 13.1 2.5 6.8 6 10.2 12.4 12.4a19 19 0 0 0 20.1-4.3l4.8 2-2.9 2c-2 1.6-3.6 3-6.5 4-5 1.7-8.7 1.8-14.6.4a24.3 24.3 0 0 1-15.1-8.5zm8.1-29.7 14.4 3.9 16.7 3-.3-.7c-2-6.8-6.1-11-12-12.7-6.6-1.8-14.9.8-18.4 6l-.4.5zm202.2 13.4-6.6-.6-15.2 33.9-21.8-31-5.8 2.8 11.1 19L391 658l-4.1 14.3-7.6 16.4 6.2.6L405 652l12.6-35.5zm-77.1 3.7c2.5-.6 4.2-.1 6.4.4l3 .8 2.2-6.6c-4-2-7-2.5-11.7-2a19 19 0 0 0-13 6.8l-.8 1-.2-12.5-4.1.9-1.4 16.7a726.9 726.9 0 0 1-1.6 15.3l-.1 6.1-.3 10.2c1 .4 5 2 8 2l3-30.6c2.3-5 5.4-7.5 10.6-8.5zm-240.7-20c5.7 3.5 16 5.4 18 5.7l3.6-5.9c-3.7-1-19.4-5.6-24-14.5l-1.9-3.9c-1.6-3.3-3-7-.8-11.3 3.8-7.8 12.5-6 21.3-3 6.5 2.3 15.9 7.4 17.8 8.5l5-5.7a75.7 75.7 0 0 0-15-10.2h-.2a34.6 34.6 0 0 0-14.3-4.2 24 24 0 0 0-4.5.5c-9.3 1.6-14.7 5.5-18 12.9a20.7 20.7 0 0 0 0 18c2.7 6.5 6.5 9 13 13z" fill="#f31d1d"/><path d="m531.7 595 4 4c-3.3 0-12.2 0-18 1.6a37 37 0 0 0-17.9 8.8c-5.3 4.9-6.6 14-7 20-1-5.5-1.8-15 2.7-20.5a35 35 0 0 1 17.7-11.8 71 71 0 0 1 18.5-2zm-4.2 39c-4.9 1-12.1.6-15.6.4 2.8 1.5 8.3 3.8 16.3 3.4a50 50 0 0 0 13-3.3l-2.4-3.9c-1.6.6-7.3 2.7-11.3 3.4zm-145.7 39.7 4.9-12.8-6.1-1.8-4.2 12-5.4 13.1 4.6 3.1 6.2-13.6zm84.8-51.2a54.4 54.4 0 0 0 10.1-2l-8.8-4.4a80.7 80.7 0 0 1-16.6 2.9c-8.4.6-15 1-21 1.2l7.9 4.4 28.4-2zM271 593.7l5.6 6.2 5.3-.7-4.3-7.6-6.6 2zm-7.6 50 4 5 1.9-15.2 3-15.9 2.3-15-4.8-5.5-.4 10-1.8 11.5-2.3 13-2 12.1zm163.8-7.5 9 3.5-.3-12.6-10.1-5.5 1.4 14.6zm-133.5-37.7a20 20 0 0 0-8.7 3.5l-.5 7a20 20 0 0 1 10.6-4c4.7-.5 7.7 0 11.6 1.9l-3.2-8c-3.6-1-6-1-9.8-.4zm404.6-7-.6 1.7h1.5l-.9-1.7zm-131.9-7.9c-11.3 5.7-14.4 14.1-15.5 25a23.6 23.6 0 0 0 19.4 26.2c-7.2-5.4-14.5-18.8-13.2-28.1 1.5-9.7 4.9-15.3 12-20 3.1-2 7.4-2.9 13-2.6 2.4.1 4.8.4 7.2.7l5.2.6c-5.3-4.8-20-5.8-28.1-1.8zm43.7-33.5-6.2-1.5 6 16.5 20 51 6.3 2-19.7-52.8L610 550zm-16.3 67c-.4 1-.7 1.9-.8 2.9 3.4-3 6.2-8 5.3-12.1-.7-3.4-5.2-7.5-9-8.3.5 1 1 1.7 1.8 2.5l.8.9a13 13 0 0 1 3 7c.4 3-.2 4.8-.8 6.3 0 .3-.2.6-.3.8zm22-73.6-4.5-3.5-7.5 4.2 6.1 2.4 5.9-3zm62.3-1.7 5.5 4.3 4.5-1.9-5-4.8-5 2.4zm6.3 50.9a36 36 0 0 0 3.3-4.4l-4.3-1.8-.8 5c-.2 1-1.3 2.5-2.6 4h.2c1.2-.6 2.4-1.1 4.2-2.8zm-33.3-28c-3.5 7.3-3.9 12-1.7 20.9a33 33 0 0 0 9.8 15.7 70 70 0 0 1-6.2-19.5c-1-8.9 1.4-15.9 8.4-23.4 3.3-3.5 13.7-4.6 17.6-4.9l-4.2-2.9h-.9a25 25 0 0 0-22.8 14.1zm25.3-20.1 1.2 4.2 6.1 4.5-2-4.5-5.3-4.2zm3.5 22-3.5-1 3.4 8.4 3.9 8.9 4.8 2.3-8.6-18.5zm-441.6 37 1.2 2.4 3.3.8-1.4-2.5-2.6-2-.5 1.3zm-127-15.2c-4.6-2-10.3-6.5-13-8.7 1.4 2.9 4.5 7.9 11.3 12.2a50 50 0 0 0 12.6 4.8l.2-4.6c-1.6-.4-7.5-1.9-11.2-3.7zm9.5-38.4c-4.4-1.2-8-2-11.8-2-3 0-6 .5-9.4 1.4-6.9 1.9-11.6 10.2-14 15.3 3.8-4.8 10-11.5 17.2-12.3a37 37 0 0 1 19.7 3c5.6 2.1 13 7.2 15.6 9.1l-1-5.5c-1.3-1-9.9-7-16.3-9zm127.6 77-6.4-2.6 1.8 6.1 5.5 1.3-.9-4.8zM406 605.5l3.7 7 7.7.8-3.3-8.3-8.1.5zm-177.2 25.8c-3.1.9-5.5.6-8 .3l-3-.3a16.5 16.5 0 0 0 18 .7 36 36 0 0 1 4-1.8l-1-4.2c-3 2.9-5.6 4.3-10 5.3zm-59.6-7.4a35 35 0 0 0 3-10c1-8.8 0-10.5-4-12.4.6 2 .1 5.2-.3 8.4l-.3 2.2a15 15 0 0 1-2 5.8l-1.6 4 4 5 1.2-3zm-5.2-87.6 2.2 5.7 7.5 1-1.6-5.4-8.1-1.3zm-16.5 36-6.8 19.3-6.9 16.8 3.8 6.6 6.8-22 8.1-22 11-26.9-2.3-4.6-6.5 15.7-7.2 17.1zm28.5 9.4a16 16 0 0 0-12-.8l-2 5a16.3 16.3 0 0 1 10.6-1c6 1.2 9.5 4.6 12.1 8-.8-5-3.7-8.8-8.7-11.2zm210.5 75.7-22-35.6-5.6-4.7 21.4 38 6.2 2.3zM357 611.2l8 7 7.6-3.1-7-8.3-8.6 4.4zm-19-7.9c-3.6.9-5.3 1.9-8.4 4.1v7a20 20 0 0 1 10.3-4.8c4.6-.7 7.6-.4 11.7 1.2l-3.7-7.7c-3.7-.8-6-.7-9.8.2zm57.5 39.6 11.5-27.8-4.1-7.2-11.4 29.2 4 5.8zm-185.8-48.8a25.4 25.4 0 0 1 21.3-5.5c8.4 1 13.2 3 20.5 6.8l-4-6.5a33.9 33.9 0 0 0-20-4.2c-9 .5-14.6 1.9-21.3 8-5.4 4.8-8.7 9-9.6 16.7-.9 6.7 0 11.3 3.4 16.5l-1-4.2c-.9-3.7-1.7-7.1-.2-12 2.1-6.8 5-10.9 10.9-15.6zm11.5 7-.2.4 9.7 2.7 5 1.2-1-1.2-12-3.4-1.5.4zm93.8 54 .9-15.3 2-16 1.4-15.2-5.2-5.2.2 10.1-1 11.6-1.4 13-1.2 12.3 4.3 4.7zm0-55.2 6 5.9 5.4-1-4.9-7.3-6.4 2.4z" fill="#1bc43f"/><path d="m714.9 590.2-4.4-8.6c-2.8-5.6-5.8-11.4-8.5-17.1l-9.6-21v-.1l-8.9-7.1-10.8 4.5 1.6 6.5-1.4.1c-4.5.4-8.7.7-13 2.7-17.6 8.3-18 28-11.1 42.8a26.7 26.7 0 0 0 24 16.4 27 27 0 0 0 23-13.4l6.8.7 12.5-6-.2-.4zM683 539.4l4.9 4.8-4.5 1.9-5.5-4.3 5-2.4zm-1.5 9.4 2 4.5-6.1-4.5-1.2-4.2 5.3 4.2zm-32.3 36.8c-2.2-8.9-1.8-13.6 1.7-20.9a25 25 0 0 1 23.7-14l4.2 2.8c-4 .3-14.3 1.4-17.6 4.9-7 7.5-9.5 14.5-8.4 23.4.9 7.6 4.4 15.7 6.2 19.5a33 33 0 0 1-9.8-15.7zm48.3 7.6.6-1.7 1 1.7h-1.6zm4.1-.5-2.7-5.3-2.7.9v.2c-.1.1-6 11.6-12.9 14.3l-1.3.6c-8 3.3-15 6.2-21.1-4.9-4.3-7.7-5.8-16-4.6-24.8a19.6 19.6 0 0 1 20.4-17.2 53 53 0 0 1 10.5 1.2l.9.2-2.6-8.7 4.3-1.8 9.4 18.8 10.3 23-7.9 3.5zm-161.1 33.6-.7.2a130.4 130.4 0 0 1-14 4l-2 .6a64.2 64.2 0 0 1-16.8-1.2c-.4-1.8-.9-7.7 7.1-9.7 1.6-.3 2.9-1 4.1-1.5a17 17 0 0 1 2.6-1l7-1.6c3.3-.7 8-1 10.8-1.3l2.2-.2h.4l1.4-14-8.7-8.2h-.3A58 58 0 0 0 504 597c-12.6 6.8-17 15.4-15.2 29.8 1.1 9.8 4.8 14.5 11.6 20s13.1 7 20.5 7l4.8-.1c8.8-.6 20.6-6.9 20.7-7l.2-.1-.4-12-5.6-8.3zm-13.1 7.7c4-.7 9.7-2.8 11.3-3.4l2.4 3.9a50 50 0 0 1-13 3.3c-8 .4-13.5-1.9-16.3-3.4 3.5.2 10.7.5 15.6-.4zm-34.6-4.6c-1-5.5-2-15 2.6-20.5a35 35 0 0 1 17.7-11.8 71 71 0 0 1 18.5-2l4 4c-3.3-.1-12.2 0-18 1.5a37 37 0 0 0-17.9 8.8c-5.3 4.9-6.6 14-7 20zm32.1 20.7c-7.6.5-12.2.7-18.2-3.1-6.1-4-9-8-10.4-14.7-1.5-8 .6-14.2 7.3-21 5.3-5.4 10.4-6.4 17.5-7.8h.3c2.6-.6 5.9-.8 9-.8 4 0 7.7.3 9 .4l-.8 7.5c-2.2.3-12.8 1.5-19.4 3.4-9 2.5-17 6.1-15.7 14.7.8 4.7 4 7 7.2 8.8 1.2.7 2.4 1.4 3.8 2 8.9 4.7 24.4-.6 28-2l.4 7c-1.8.9-11.4 5.2-18 5.6zm52.4-54c-8 1.6-11.4 10.4-10 17.9a15 15 0 0 0 7.5 10.5 16 16 0 0 0 13.9 1c9.8-3.7 14.6-11 12.6-19-1.8-7-10.1-13.3-24-10.5zm12.4 23.2a9.5 9.5 0 0 1-6.6 3.9c-2.8.5-5.6-.3-7.9-2.2a13.5 13.5 0 0 1-4.3-7.7c-.7-3.5 0-7.1 1.7-9.8 1.3-2 3.2-3.2 5.4-3.7a18 18 0 0 1 3.7-.4c3.8 0 7.3 1.8 9 9 1 4.7.7 8.4-1 11zm3.1.7c.1-1 .4-1.8.8-2.9l.3-.8c.6-1.5 1.2-3.3.8-6.2a13 13 0 0 0-3-7.1l-.8-1a8.9 8.9 0 0 1-1.8-2.4c3.8.8 8.3 4.9 9 8.3 1 4-1.9 9.1-5.3 12.1zm89-56.1-7-2.6h-.2c-.5.2-12.3 3.2-13.7 12.3-1 6.4-1.5 9.6 1.7 15.7 4 7.3 8 10.9 13 10.9 2 0 4-.6 6.2-1.6 3.4-1.6 10.3-12 10.6-12.5l.2-.3-5.6-12-5.3-10zm-5.8 30.9a3 3 0 0 1-2.6 1c-2.8-.5-6.3-4.3-7.8-7.7-2.2-4.5-2.8-7.6-.6-13.9 2-6 6.4-8 7.7-8.5l7.7 17.6c0 .6.1 3.6-1.2 6.8a13 13 0 0 1-3.2 4.7zm8.2-2.1c-1.8 1.7-3 2.2-4.2 2.8h-.2c1.3-1.5 2.4-3 2.6-4l.8-5 4.3 1.8c-.7 1-2.4 3.5-3.3 4.4zm-.7-9.8-3.9-8.9-3.4-8.4 3.5 1 8.6 18.6-4.8-2.3zm-63.4-40.6-7-6.3-15.6 7.5 28.9 75.5v.3l13 4.2 10-3.9-29.2-77.2v-.1zm-9-2.3 4.5 3.5-5.9 3.1-6.1-2.4 7.5-4.2zm18.6 76-20-50.9-6-16.5 6.2 1.5 6.4 15.2L636 618l-6.3-2zm15.2 1.8-4.4 1.3-11.5-29.4-15.7-40.9 4.6-2 18 47.2 9 23.8zm-386.6-19.1c-4.7-10-5.2-10.4-9.4-12.7l-.7-.4c-8-4.4-15.4-4.7-21.6-4.4-7.6.4-9.2 1-17 4.6a27 27 0 0 0-16.3 18.2c-2.8 9.7-.3 16.6 4.6 24.6a32.3 32.3 0 0 0 21 15.5c4 1.1 7.3 1.8 10.7 1.8a23.5 23.5 0 0 0 17.9-7.8c1.3-1.4 2.7-2.7 4.5-4.1l.3-.2-2.1-9.5-10.7-3.6-.3.3a18.1 18.1 0 0 1-12 6.8c-5.3 1.1-9 .1-13-1.9l-2-4.2-.6-4 2.2-7.6 23.4 5.8 21.8 4v-.5c2.2-7.4 2.8-13.4-.7-20.7zm-61.8 10.7c1-7.7 4.2-12 9.6-16.7 6.7-6.1 12.4-7.5 21.2-8l3-.1c6.3 0 10.9 1.2 17 4.3l4 6.5a54.4 54.4 0 0 0-20.4-6.8c-9-1.1-15 .4-21.3 5.5a28.5 28.5 0 0 0-11 15.6 20 20 0 0 0 .4 12l.9 4.2a22.1 22.1 0 0 1-3.4-16.5zm51.7 17.6 1 4.8-5.6-1.3-1.8-6.1 6.4 2.6zm-27.6 4.6c2.6.3 5 .6 8-.3a19 19 0 0 0 10.2-5.3l.8 4.2a36 36 0 0 0-4 1.8 16.5 16.5 0 0 1-17.9-.8l3 .4zm35.6-16.4-23.1-4.1-21.7-5.2v.5c-.5 2-1.1 3.6-1.7 5.3-1.4 4.3-2.6 8-.7 13.1 2.5 6.8 6 10.2 12.4 12.4a19 19 0 0 0 20.1-4.3l4.8 2-2.9 2c-2 1.6-3.6 3-6.5 4-5 1.7-8.7 1.8-14.6.4a24.3 24.3 0 0 1-15.1-8.5c-6.7-8-7.4-17.5-2.3-27.5 4.9-9.3 12.2-14 22-14h.5c6.8.2 6.8.2 16.7 4l2.8 1c7.6 3 11 10 9.3 18.9zm-140-29-4.4-1.6-2-.7a64.1 64.1 0 0 1-13-10.7c.7-1.6 3.7-6.7 11.4-3.7 1.5.6 2.9.9 4.2 1l2.7.7 6.6 2.8c3.1 1.4 7.2 3.8 9.6 5.2 1 .6 1.6 1 1.9 1l.3.3 9.3-10.7-2.4-11.6-.3-.2a58 58 0 0 0-26.9-13.4c-14.2-1.7-22.8 2.8-29.6 15.6-4.8 8.7-4.4 14.6-2 23 2.8 10.2 8.5 15.3 16.6 20.2a64.4 64.4 0 0 0 21 6.3h.2l6.6-10 .2-10-.7-.3c-4-1.2-7.1-2.3-9.2-3.2zm-16.8-36.8a35.2 35.2 0 0 1 21.2.6c6.4 2 15 8 16.3 9l1 5.5c-2.7-1.9-10-7-15.6-9-7-2.6-12-4.1-19.7-3.1-7.1.8-13.4 7.5-17.2 12.3 2.4-5 7.1-13.4 14-15.3zm18.3 56.5c-2-.3-12.3-2.2-18-5.8-6.5-4-10.3-6.5-13-13a20.7 20.7 0 0 1 0-18c3.3-7.4 8.7-11.3 18-13 1.6-.2 3-.4 4.5-.4 5 0 9.1 1.8 14.3 4.1l.3.1a75.7 75.7 0 0 1 14.9 10.2l-5 5.7c-2-1-11.3-6.2-17.8-8.5-8.8-3-17.5-4.8-21.3 3-2.1 4.3-.8 8 .8 11.3l2 3.9c4.5 8.9 20.2 13.6 24 14.5l-3.7 6zm4.3-9.2a50 50 0 0 1-12.6-4.8c-6.8-4.3-10-9.3-11.3-12.2 2.7 2.2 8.4 6.7 13 8.7 3.6 1.8 9.5 3.3 11.1 3.7l-.2 4.6zm346.2 15.9h-.2a63.5 63.5 0 0 1-14.9 3.2l-14.6 1-7.7.6-7.7.5h-.5v3.9l.1 7.1c.2 2 .6 3.8 1 5.6l.7 3.5v.3l13.4 5.5h.2a545 545 0 0 0 46.8-6.1l.4-.1-2.2-17.3-14.8-7.6zM427 636.2l-1.4-14.6 10 5.5.3 12.6-9-3.5zm3.2-16c6-.2 12.6-.6 21-1.2 6.5-.6 12-1.5 16.6-3l8.8 4.6-2 .4c-2.6.6-5.3 1.3-8 1.5-9.5.8-19.2 1.4-28.5 2l-7.9-4.3zm47.1 15.3c-5.2 1.1-10.6 2.3-16 2.7l-22 1.8-.3-12.1 16.4-1.5c8.1-.6 16.5-1.3 24.8-2.3l1.3 10.5-4.2.9zM181 580.7c-5-3-10.5-6.3-16-3.7l12.4-33v-.1l-3.6-9-13.1-2-13 30.5-8.6 22-9.4 23.3 7 11.2 13.5 4.8.1-.6c.8-5.6 1.8-8.7 4.4-13.5l1.2-2.6c1.8-3.8 3.3-7.1 6.9-8.3 2 4.3 1.6 7.4 1 12v.3c-.5 2.7-1.3 4-2.3 5.6-.6 1.1-1.3 2.3-2 4.2l-.1.3 10 10.1 8.8.3v-.4c1.6-4.9 3-8.5 4.2-12 1.8-5 3.4-9.2 4.9-15.4 2.8-11.9.7-20-6.3-24zm-9-43 1.6 5.4-7.5-1.1-2.2-5.7 8.1 1.3zm-38.3 70.7 7-16.8 6.7-19.3 7.2-17 6.5-15.8 2.3 4.6-11 26.9-8 22-6.9 22-3.8-6.6zm35.4 15.5-1.2 3-4-5c.5-1.7 1.1-2.9 1.7-4 .8-1.6 1.5-3 2-5.8 0-.7 0-1.4.2-2.2.4-3.2.9-6.4.4-8.4 3.8 2 5 3.6 3.9 12.4a35 35 0 0 1-3 10zm6.5 5.5-4-.2 4-16.1c1-4 .5-8.2-1.4-11.4a11 11 0 0 0-6.8-5.2c-7.4-2-12.8 4.5-15.4 11.2l-4.7 12.6-7-2.7 4.5-15.3 7.2-20.6 6.7-18 7.6-18.3 6.5 1-10.2 26.8-6 17 .6-.1a26 26 0 0 0 7.4-1.2c3.7-.9 6.7-1.6 10.7.7 6 3.3 8.5 6.6 9.3 12.2l-9 27.6zm-3-44.5a16.3 16.3 0 0 0-10.6 1l2-5c4.4-1 7.8-1.3 11.9.8 5 2.4 8 6.1 8.7 11.3a19.4 19.4 0 0 0-12-8zm228.7 17.5-6.8 17.2-5.9 14.1-13.2-19.9-8.8-10.8-12.1 6.3-4.8-9.4h-.2a28.7 28.7 0 0 0-17.8 1.8l-3 1.2-6.3-9.3-11.9 4.4v9.6l-5-11.8h-.3c-3.9-1-6.5-1.3-11-1-2.8.3-4.7 1-6.8 1.7l-3 1-5.8-9.7-12.1 3.7-2.1 28.8-4.7 24 8.3 9.5 14.3 4.2 1.4-16 3.1-16c2.6-7.5 4.8-7.6 9-7l2.4.2c2.7.3 4.8.5 7 2.6l.5.5 4.7-13-.1 17.7-3.2 24.2 9 9 14.5 3.2.4-16 2-16.2c2.1-7.7 4.3-8 8.6-7.7l2.3.2c2.8.1 4.9.2 7.1 2.1l.6.5 3.2-11 22.3 41.6-10.3 28.4 8 5.9 12.6 2.8 20.1-38.8 14.3-38.8v-.1l-5.8-14.9-14.7 1zm-116.5-.4c3.2-2 5-2.9 8.7-3.5 3.8-.7 6.2-.6 9.8.4l3.2 8a19 19 0 0 0-11.6-2 20 20 0 0 0-10.6 4.1l.5-7zm-7.4-10.4 4.3 7.6-5.3.7-5.6-6.2 6.6-2zm-10.2 57.1-4-5 2-12.2 2.2-12.9 1.8-11.4.4-10.1 4.8 5.5-2.2 15-3.1 15.9-1.9 15.2zm37-31.4-3-1c-2.1-.6-3.8-1.2-6.4-.8-5.2.7-8.5 3-11 7.9l-5 30.3c-3.1-.3-7-2-7.9-2.6a4072.6 4072.6 0 0 0 1.6-17c.4-2.3 1.7-9.4 2.4-14.3l2.5-16.6 4.1-.7-.6 12.5 1-1c4-4 7.7-5.6 13.3-5.9 4.8-.2 7.7.5 11.6 2.8l-2.6 6.4zm33.8-14c3.7-1 6-1 9.8-.2l3.7 7.7c-4-1.6-7-2-11.7-1.2-4.2.8-7 2-10.3 4.8v-7a19 19 0 0 1 8.5-4zm-16.6-5.8 4.9 7.2-5.3 1-6-5.8 6.4-2.4zm-5.6 42.3L315 655l-4.3-4.7 1.2-12.3 1.4-13 1-11.6-.2-10 5.2 5-1.3 15.3-2.1 16zm34-18.4-3-.8c-2.2-.5-3.9-1-6.4-.4-5.2 1-8.3 3.6-10.5 8.5l-3.1 30.7c-3-.2-7-1.7-8-2.1l.3-10.2.1-6.1.1-.8 1.5-14.5 1.4-16.7 4-1 .3 12.5.8-1c4-4.2 7.4-6 13-6.7 4.7-.5 7.7 0 11.7 2l-2.1 6.6zm53-13.5 4.1 7.2-11.5 27.8-4-5.8 11.4-29.2zm-37.3-1 7 8.2-7.5 3.1-8-7 8.5-4.4zm-6.7 10.2 5.5 4.7 22.1 35.6-6.2-2.2-21.4-38.1zm12.1 67.1 5.4-13 4.2-12.1 6 1.8-4.8 12.8-6.2 13.6-4.6-3.1zm34-32.2-19.5 37.3-6.2-.6 7.6-16.4L391 658l-11.7-17.3-11.1-19.1 5.8-2.8 21.8 31 15.2-34 6.6.7L405 652zm4.7-39.4-3.7-7 8.1-.6 3.3 8.3-7.7-.7zm-175.5-16c-6.6-1.8-14.9.8-18.4 6l-.4.5 14.4 3.9 16.7 3-.3-.7c-2-6.8-6.1-11-12-12.7zM230 599c1.8.1 4.3 1 5 1.4l.1.3-6.9-1.7h1.8zm.6 5.2-9.7-2.7.2-.3 1.6-.4 12 3.4 1 1.2-5-1.2zm8.7 1.8-1.2-2.4.5-1.3 2.6 2 1.4 2.5-3.3-.8zM573 578.3a33.5 33.5 0 0 0-21.2 14.7c-4.7 7.3-6.3 16-4.4 24 4.4 18.5 20 22.2 36 22.2 2.2 0 4.4 0 6.5-.2a23 23 0 0 0 18-11.1c5-7.7 6.3-17.4 3.3-25.2-5.5-14.5-19.8-28.4-38.2-24.4zm-22.3 30.2c1.1-10.8 4.2-19.2 15.5-24.9 8.1-4 22.8-3 28.1 1.8l-5.2-.6a93 93 0 0 0-7.2-.7c-5.6-.3-9.9.6-13 2.7-7.1 4.6-10.5 10.2-12 19.9-1.3 9.3 6 22.7 13.2 28a23.4 23.4 0 0 1-19.4-26.2zm54.6 17.5c-3 4.9-7.5 8.2-13 9.5a26 26 0 0 1-19.8-3.5c-6-3.8-10.2-9.5-11.6-15.7-1.7-7.7.2-16.6 4.8-22.5 3.3-4.2 7.6-6.6 12.4-6.8h3.6c13 0 22.4 3.5 26.1 18.2a27 27 0 0 1-2.5 20.8z"/></svg>
