<svg xmlns="http://www.w3.org/2000/svg" viewBox="0 0 801.4 768"><path fill="#fff" d="M616 519c-1.6 0-3 .4-4.5 1-.2.1-4 1.9-6.9 3.8l-7.2 4a10 10 0 0 0-4 13.3 280.5 280.5 0 0 0 6.3 13.8l3.3 8.3-2.7 2.7c-2 2.2-3.8 3.8-5.5 7l-1.9 3.4-4.4-2.6c-1.4-.7-4.8-3.6-10.8-4.5a30 30 0 0 0-4-.3c-4 0-7.9.7-11.5 1.2a32 32 0 0 0-21.1 14.2l-1.7-1.5-3.5-3.5a10 10 0 0 0-8-2.9c-.3 0-4.2.2-7.8 1.2-3.6 1-5.9 2.6-6.5 2.9-1.5.8-5.4 2.8-8.4 5-.7.6-4.7 2.5-8.2 6.8a41.8 41.8 0 0 0-6.4 14.5c-1 4.3-.6 8.6.1 12.6-1-1.2-1.8-2.2-3-3.4-1.7-1.7-3.4-3.4-5.4-4.9l-.1-.2a10 10 0 0 0-12-2.1s-3.8 1.8-7 2.8a103 103 0 0 1-13 2.3c-2.8.2-4.4.2-7.2.7l-5.5 1c-1.4.1-2.7.7-3.8 1.4l-3.4-11a10 10 0 0 0-8.5-7c-.2 0-4.3-.5-7.2-.5-3.8 0-5.5.6-5.7.6h-6.4a10 10 0 0 0-8 4.3c-2-2.5-5.2-4-8.4-3.8l-4.2.1c-4.3 0-9 1.1-12.2 2l-.7.2a9.9 9.9 0 0 0-7.3-2.6c-.3 0-8.5.4-16.2 2.8l-3.6 1.3-.4-1a10 10 0 0 0-10.3-5.8h-1.4s-1.4-1-6-1.4c-3.5-.3-5 0-5 0l-2-.1a10 10 0 0 0-8.3-4.8c-.4 0-8.5 0-16.4 1.9-1.6.3-2 .6-3.6 1l-.4-1a10 10 0 0 0-10-6.4h-1.3s-1.3-1.3-5.9-2c-3.5-.4-5-.1-5-.1l-3.1-.5a10 10 0 0 0-8.7 2.3c-.7-.9-1.2-1.8-2.1-2.7a42.1 42.1 0 0 0-15.4-8.3c-3-.8-7.4-2.1-13-2a30 30 0 0 0-5.8.8c-3.4.8-7.6 2.1-11.6 3.7-3.7 1.4-7 2.8-10.3 5.3-2-3.4-4.5-5.9-6.4-7.6-1.5-1.3-4-3.5-7.5-5.2l1.2-3.2c.7-2.6 1.9-5 3.1-7.8 1.7-3.7 3.8-10 3.9-10.2.5-1.6.6-3.3.3-5 0-.2-.4-2.6-1-5a67.4 67.4 0 0 1-1.1-4.3 10 10 0 0 0-8-8.4s-5.2-1-6.3-1.4l-10.5-3.6a10 10 0 0 0-11.4 3.6c-.2.2-2.7 3.4-4.2 6.4-.3.6-2.4 3.8-4 8l-1 2.6c-.8-.4-1.9-1-3.4-1.4 0 0 .5.1-1-.6-1.6-.7-4.4-2.2-8.7-1.7 0 0-4.9-.5-8.3-.4-1.8 0-4 .2-6.5.6-2.4.5-5.1.8-8.5 2.8-1 .6-3.6 2-6.3 3.8-2.8 1.8-5.7 3.4-8.4 6.6-1.5 1.8-4.6 5.7-7.7 10.5-3 4.6-6.6 10-7.1 17-.3 4.1-.1 9.2 1.9 14.6 2 5.3 5.6 10.5 11 15.6a73.7 73.7 0 0 0 21.7 14.4c3.8 1.6 7.8.6 10.5-2l.4 1.7a10 10 0 0 0 6.2 7s5 2 6.8 2.5c1.8.6 3 .7 4 .8l6.9 2.5c1.8.7 3.7.6 5.4.3a10 10 0 0 0 4.6 3.6l16.6 6a10 10 0 0 0 11.7-4.1l1.1 2c5.4 7 10.8 10.4 11.5 11a59.4 59.4 0 0 0 20.2 9.5c3 .6 5.3 1 8.2 1a41.5 41.5 0 0 0 20.4-8.3l1.7 2.5 3.5 5.8a10 10 0 0 0 7 4.6 853.4 853.4 0 0 0 14.4 2.4 10 10 0 0 0 11.2-8.4s1.7-10 3-14.8c2-7 2.4-8.2 3-8.6a19 19 0 0 1 8.3-3.6l3.7-.2v1.8c-.9 7.6-1.9 22.2-2 22.3a10 10 0 0 0 2.2 6.8 268.7 268.7 0 0 0 7.2 10 10 10 0 0 0 7.2 4.2s5.8.5 8.6.9l6 .5a10 10 0 0 0 10.7-9s1-9.6 2-14.5l.2-.8a32 32 0 0 1 2.2-8.4c1.3-1.4 6-3.9 8.2-4.2l10.4-1.1c.5 1.1.8 2.3 1.4 3.4l4.4 10.5c1 2.8 3.2 7.7 3.6 9a10 10 0 0 0-11.2 9.3c0 .1-.5 6.8-.4 10.5l-.2 7.8c-.1 2.1.5 4.3 1.7 6l2.4 3.5 3.4 4.1a10 10 0 0 0 7 3.6c.2 0 4.1.3 9 .2 5 0 10.6 0 16-2a25.2 25.2 0 0 0 12.6-10.9c2.6-3.8 4-7.3 4.8-9.2 1.3-3.5 1.7-6.6 2.2-12.3a129.9 129.9 0 0 1 7-30.7 9.8 9.8 0 0 0 2.2 3.5l8.6 8c2 2 5 3 7.8 2.8a48.3 48.3 0 0 0 13.2-2.3l5-.5c3.4-.5 6-1.5 8.2-2.1a118 118 0 0 0 20.4-7.6l2.8 11a10 10 0 0 0 3.3 5.2c.3.3 1.7 2.2 5.7 3.9.3 0 .6.2.9.4l1.6 1.1 1.1.7a10 10 0 0 0 7.5 1.2s2-.5 3.7-.7h1.7c1.4 0 3.7 0 6.3-.8 2.7-.7 4.5-1.8 5.6-2.3 1.1-.6 1.7-.8 2.6-1 6.8-1.8 11.6-6 14.7-9.3a28.5 28.5 0 0 0 7.3-14l.3.2c1.7 1 4.6 3.5 9.8 5.6 8 3.4 15.4.6 16.1.4 1.6-.3 14.6-1.6 21.8-13.6 2.7-4.6 3.6-9.5 4-14.1a44 44 0 0 0 6 3.3c.4.2 4.8 3.6 11.3 3.4 5-.2 9.9-1.7 14.4-4.4l.7-.5a10 10 0 0 0 4-.7l6.5-2.7 7.3-3a9.9 9.9 0 0 0 5.3-11.8l1.3.5c2.6.4 12 2.8 21.4-2.1 2.8-1.5 4.8-3.2 6.5-4.8l1.6.3c2 .2 4-.1 5.8-1l6.8-3.4 6.3-3.3a10 10 0 0 0 4.5-13l-3.4-7.2c-2-4.2-3.9-6.4-5.4-9.6-2.1-4.3-4.5-8.6-6.8-13l-.5-1-.5-.9c-2-4-3-5.5-5-9.8a65.3 65.3 0 0 0-4.2-7.9 10 10 0 0 0-5-3.8l-.6-.1a22.9 22.9 0 0 0-7.2-3.5l-.7-.4a10 10 0 0 0-8.6-.4c-.2.1-2.3.9-4.6 2.3-1.9 1.1-5.9 4-7.5 5.2-2.4.3-5.3 1-8.4 2.4a36.6 36.6 0 0 0-11.4 8.8l-.3-.9c-2-4.5-3.2-7.7-3.2-7.7-.7-2-2-3.6-3.7-4.8l-3.6-2.6a18.2 18.2 0 0 0-5-3l-1-.2-3.6-1.8a10 10 0 0 0-4.4-1Z"/><path fill="#f31d1d" d="M625.3 540s-1.1 1-2.1 1.4l-5.4 2.4s.6 2.2 2.5 6.2 4.3 11 6.6 16 6 15 6 15-2.7-2-5-3c-2.2-.8-2.6-.6-7 1-4.3 1.6-5 2.3-8.2 6-3.3 3.5-3 6.2-2.8 8.3.2 2.1 1.2 6.3 3 9.5 2 3.2 2 4.2 7.4 8.4 5.5 4.2 6.7 3.8 11.9 2.2a11 11 0 0 0 8-7.7c.7-2.6 1.2-6.2 1.2-6.2l4.1 9.3 5.4-1.7-5.8-13.6c-2.9-7-4.7-11.2-8.3-21.3l-11.5-32.1Zm3.4 45.8c1.8 0 4.6 1.6 6.5 6.5 2 4.8 1.8 8.4.8 10a8.4 8.4 0 0 1-2.6 2.7s-5 2.1-6.8 1.8a9.4 9.4 0 0 1-6.8-5.2c-1.6-3.5-1.6-8.9.2-11.4.9-1.3 2.6-2.5 4.3-3.3a10 10 0 0 1 4.4-1.1Zm55.6-44-1.8 1-3.8 1.8s2 4.5 2.8 6.7l2.4 6.3s-3.6-2.8-6.2-4.2c-2.5-1.4-4.7-2.8-8.1-3.3a8.8 8.8 0 0 0-4.5.3c-1.4.5-2.6 1.3-3.8 2.3a17 17 0 0 0-6.6 15.2c0 3.2-.4 5.9 2.5 12.4 3 6.5 3 5.8 4.3 7 1.2 1.4 6.6 5.3 9 5.4 2.5 0 7.2 1.7 12.2-1.3 5-3 5.8-4.7 7.3-8.3l3.8-9.8 3.1 6.3 2.7 5.2 3.6-1.7 2.3-1-3.2-5.7c-1.8-3.1-3.7-8.2-5.5-11.4-1.9-3.1-4-6.7-6.3-11.4l-6.2-11.9ZM671 557.5c1.3-.1 2.4.1 3.3.6 1.9.8 3.4 1.5 5.1 3.7a36 36 0 0 1 4.7 13c.3 3.4.5 5.6-.6 7.6-1.2 2-4.8 4.1-7.7 4.3-2.9.1-7.6-2.6-10-6.9-2.3-4.2-2.6-8-2.9-11.1-.3-3.1.8-4.7.7-5.7 0-1-.2-2.7 3-4.3 1.7-.8 3.2-1.2 4.4-1.2ZM165.7 545l-3.3 9.3c-1 2.7-3 7-4.2 10.2-1.1 3-3.7 11.6-5.5 16.2-2 4.6-10 23.3-12.8 30.5-2.7 7.2-2 5.8-2 5.8l3.4 1.2c1.4.4 2.6.3 4 .8l2.4 1s1.3-4 2.8-6.4c1.5-2.4 1.3-1.6 2.7-3.3 1.4-1.6 6-8.3 8.2-9.6 2.3-1.4 5.4-2.5 8.4-1 3 1.3 4.2 5.2 3.7 7.6-.4 2.5-1.7 8.2-2.7 11-1 2.8-4 8.7-4 8.7l7 2.9s3.7-11.4 6.2-17.8c2.4-6.4 1.4-3.2 2.6-6.2 1.2-3 1.7-7 1-8.7-.7-1.7-5.3-4.4-8-5.2a17 17 0 0 0-7.8-.6c-1.6.3-5.4 2-6.5 2-1.1 0-5 2.4-5 2.4s3.3-9.1 4-11.5l3-8.3c1.7-4.5 3.2-5.8 4.4-9.2 1.2-3.3 1-4 2.8-8.7 1.8-4.8 2.2-4.5 3-6.3l1.7-4.5-4-.7c-2.4-.5-5.4-1.6-5.4-1.6Zm-45 14.2a41 41 0 0 0-8 1 34.3 34.3 0 0 0-16.6 12.3c-4.1 6.1-4.3 7.8-3.4 14.2 1 6.3 11.6 14.6 14 16.2l6.6 4 1.4-2.9 1.5-3s-4.5-2.2-9.8-6.5c-5.3-4.3-4.2-13.1-2.4-18 1.8-4.7 5.8-6.7 8.4-7.8 2.5-1 7.2.7 8.6.8 1.4.1 2.9-.3 4.5 0 1.6.5 5 2.3 5 2.3l5.3-8.2s-5.1-2.9-8.2-3.9c-1.5-.4-4-.6-6.9-.5Zm459.5 28.2c-2.6-.2-5.7 0-8.6.8-5.8 1.8-11 9.4-13.5 14.3-2.6 4.9-3.4 9-2.3 14.8a27.1 27.1 0 0 0 8.3 13.2c3 3 6.4 5.8 10.5 6.6 4.1.8 10-1 11.8-1.8 1.9-.8 5.4-3.2 6.8-5 1.3-1.7 2-4.6 2.5-9.5.6-4.8-.8-15.7-1.6-19.3a45.8 45.8 0 0 0-9-13 14 14 0 0 0-5-1Zm-5.5 10.8c.3 0 .5.2 1.2.5 1.5.4 4 2.1 6 3.8 1.8 1.7 3.6 3.7 5 7.8 1.5 4.1 1.2 8-.1 11.7-1.4 3.6-5.8 5.7-7.7 6.3-1.8.6-3.5 0-7.3-2.7s-4.7-6.3-5.5-12.6c-.8-6.2 3.5-13.7 6.2-14.4l2.2-.4Zm-351.1-1.5c-2.2.3-4.5 1-6.6 2.1a37.8 37.8 0 0 0-13 10.6c-2.7 4-4.5 6-5.7 9a22.3 22.3 0 0 0-1.8 8c0 2.4.4 6.8 2.7 9 2.3 2.3 5.1 4.7 6.7 6 1.7 1.3 1.6 1.1 3 1.7 1.2.6 4.3 3.8 11.8 5.6a18.3 18.3 0 0 0 14.6-2.8c2-1.3 4.5-3.6 4.5-3.6l-4.4-4s-1.8 1.4-4 2c-2.3.4-5 .4-9.7-.8a19.4 19.4 0 0 1-10.7-6.2c-2.2-2.9-2.9-4-3-6.5 0-2.6 1.8-6.9 2-8l1.2-3s13.3 3 18.9 3.8c5.5.9 19.4 5 19.4 5s.8-7.3.6-9.8c-.2-2.5-.9-8.1-5.3-11.1-4.3-3-8-4.4-11.8-5.9a21.3 21.3 0 0 0-9.4-1Zm4 4.4a22.4 22.4 0 0 1 7.5 1.3c4 1.6 3.8 2 4.4 2.7.6.7 2 3 2.5 6 .4 2.9 0 7.7 0 7.7l-19.4-4.6c-4-1-7.3-2.4-7.3-2.4s1.3-3.8 3-5.6c1.8-1.9 4.5-4.3 6.3-4.8.7-.2 1.7-.3 3-.3Zm306-3.5-2.4.6-7.4 2.3c-6.7 2.2-13 5.9-16.1 11.8-3.2 5.9-2.2 9.2 4.2 13.4 6.4 4.2 8.4 2 12.7 3.8 4.4 1.8 7.6 4.5 7.8 9.3.3 4.8-10.8 9.4-13.2 10.2-2.4 1-4.5 1.2-4.5 1.2l1 3.8c.5 1.9.6 4 .6 4h3c1.8-.2.6.7 5.3-.7 4.7-1.5 6.3-1.8 11.7-4.5 5.4-2.8 8-7.2 7.9-12.5-.3-5.3-4-10-6.4-12.2-2.3-2.2-10-4-13.4-5.2-3.2-1-4.5-3-5.3-5.7-.8-2.8.6-5.8 6.3-7.4 5.7-1.6 11.3-2 11.3-2l-1.5-5-1.6-5.2ZM270.3 607s-2.6 14.1-3.7 23.7l-3 24.7 6.6 1.3s2.5-13.7 5-19.2 6.7-11.7 14-13.7c7.4-2 16.2-2.8 16.2-2.8l1.8-7.2s-7.2-.7-12.6.7a45.2 45.2 0 0 0-13.5 5.8c-3.4 2.2-6 5.2-6 5.2s.5-5.6 1.2-8.8c.7-3.2 2.1-7.6 2.1-7.6l-8.1-2Zm54.4 11.3s-1.7 14.2-2.3 23.8l-1.4 25 6.7.8s1.6-13.8 3.8-19.5c2.1-5.7 5.9-12 13-14.6 7.3-2.5 16-3.7 16-3.7l1.3-7.3s-7.1-.3-12.4 1.5c-5.2 1.7-10 4-13.1 6.5-3.3 2.5-5.8 5.6-5.8 5.6s.2-5.6.8-8.8c.5-3.2 1.6-7.7 1.6-7.7l-8.2-1.6Zm66 4s-5 .5-6.3.3c-1.4-.2-5.4.3-5.4.3s5.7 12.4 7 16.4c1.5 4 4.7 14.7 6.6 20.3 2 5.6 4 15.5 4 20.3 0 4.7-2.7 8.5-5.4 9.6-2.8 1.1-6.7.7-6.7.7l-.2 3.3c0 2-.7 3.8-.7 3.8s11 .4 14.1-1c3.3-1.5 6.4-7.6 7.6-11 1.2-3.3.3-5 1.5-10.6 1.2-5.5 3.4-16.7 5.2-22.3a158 158 0 0 0 4.5-15.9c.5-3.1 2.8-13 2.8-13h-2.6l-3.8-.3-2.7-.2-2.4 9.6a208.4 208.4 0 0 1-6.6 20.2l-1.4-3.5c-.7-1.2-3.4-9.8-3.9-11.2l-4.1-14c-.2-.7-1-1.7-1-1.7Zm91 8.6-9.4 3.2c-3.5 1.1-9.8 2.3-11.3 2.6-1.5.3-3.1.6-4.3.6l-4.1.4c-1.8.2-3.6.1-3.6.1l-.3 4.8.1 4.3 3.3-.3c1-.1 3-.9 4.9-1.3 1.8-.4 2.6-.1 4.3-.4 1.6-.3 5.2-1.6 7.8-2.2 2.7-.6 5.2-1 8.2-2.1l7.2-2.6-1.6-3.2-1.3-4Z"/><path fill="#1bc43f" d="m616 533.1-6.8 4 4.4 2.8 8.2-3.8s-3.3-2-3.8-2-2-1-2-1Zm60.5 2.8-2.8 1.9-3.2 2 3.7 1.6 6.7-3.5-3.7-1.2c-.4-.1-.7-.8-.7-.8Zm-512 0 .8 3.8s1.8.9 3 1.3c1.1.4 6.7 1.7 6.7 1.7s-.5-1.4-.4-2.1l.1-1.7-5.4-1c-1.7-.6-4.7-2-4.7-2Zm-4 1.7s-.6 1.7-1.4 3c-.8 1.2-1.2 1.2-1.9 3.1-.7 2-2.7 9.8-4.8 15-2 5.3-8.5 24.9-12.2 34-3.6 9-4 7-5.3 10.6a80.9 80.9 0 0 0-1.7 5.5s.3.2.5.6l1 2.9 17-41.8c4-9.6 2.8-9 4.1-12l6.4-15.2s-.6-1-.8-1.9l-.9-3.8Zm447.8 3.2 2 3.8c1 2 2.4 6 4.5 10.6L620 567l1.7 1 3 2.3-6-14.8c-1.9-4.3-5.7-12.1-5.7-12.1l-2.2-1c-.5-.5-2.4-1.7-2.4-1.7Zm58.4 3.4c-1.9.2-7 .5-8.4 1.2-1.3.7-4.9 2-7.1 5-2.3 3-3.6 5.4-3.8 9.5a30.2 30.2 0 0 0 2.5 10.4s.4-10.6 1.9-13.5c1.5-3 2.9-6.2 8.8-10 5.9-3.7 13.1-.9 13.1-.9l-.3-.7s-4.8-1.3-6.7-1Zm-537.5 7.3c-1 0-2 .3-3.7.4-3.3.2-5.2-.7-10.4.6a32 32 0 0 0-11.1 6.8s6.3-3.7 11.3-4.5c5-.8 5-1 11.2-.3 6 .6 10.4 4 10.4 4v-2.1c0-1 .3-2.3.3-2.3s-3-1.6-5.1-2.3a6.5 6.5 0 0 0-2.9-.3Zm545.5 12.3s1 3.6.5 7.5c-.4 4-3.5 9-3.5 9s2.6 2 3.4 2.1c.7 0 2.9.1 4.5-2.4s-1.8-12-2.9-14c-1.1-2-2-2.3-2-2.3Zm-57.4 6.2-2.5 1.3c-1.4.7-3.8 3.3-7.2 7.9-3.4 4.6-2.7 6.7-3 10.1-.3 3.5 1 6.7 1 6.7s-.5-3.9-.5-5.2c0-1.3.2-4.3 1.5-6.7 1.3-2.4 7.8-8 9.7-8.9l5.2-2-4.2-3.2Zm-509.7 10.2s-1 4.8-.2 6.7a16 16 0 0 0 6.3 6.8c3.5 2 4.4 2.3 4.4 2.3l-.2-1.3.2-1.5s-5.3-2.7-7.1-5.3a34 34 0 0 1-3.4-7.7Zm64.7 1h-2c-1.3.1-4 1.4-4 1.4l-1.5 4.6s2-.9 2.5-.8a8 8 0 0 0 2.7 0c1 0 4-.6 7.6 1 3.6 1.8 6.5 3.5 6.5 3.5l-2-3.5a28.8 28.8 0 0 0-8.6-6l-1.2-.2Zm400.4 2.3s-5 .3-8.8 1c-1.3.3-2.5.6-3.3 1-3.1 1.4-3.4 2.2-5.6 4-2.2 1.8-5.2 9.6-5.5 14.2-.2 4 1.9 12.2 2.4 14.4a22 22 0 0 1 .7-13 48 48 0 0 1 9.3-15.6c3.8-3.5 4.5-3.7 6.4-4.6 1.8-.8 4.5-1.4 4.5-1.4Zm-347 3.3c-5.5-.5-10.9 2.3-14 3.6-3.1 1.2-5.9 2-7.4 3.5-1.6 1.4-8.1 9.9-9.1 14s-1.3 8.3-1.3 8.3 5.3-9.6 8-12.3c2.7-2.6 7.5-6.5 12.1-8.8a26 26 0 0 1 19.7-2.4 30.6 30.6 0 0 1 10.6 4.6s-.6-2.4-4.2-5a29.8 29.8 0 0 0-14.5-5.5Zm402.2 3.3s1 2.1.8 3.1c0 1-.3 4.2-1 5.6l-1.6 3.6s4-.4 5.2-1.3c1.3-.9 1-4.3 0-6.8s-2.2-4-2.5-4c-.2-.2-1-.2-1-.2Zm-100.2.5s-2.3-.3-3.3 0c-1 .4-2.4 1.7-4.4 2.6-2 1-4.9 3.2-6.2 3.9a27 27 0 0 0-6.2 4.7c-.6 1.1-2.1 5-2.1 5s3.1-4.3 8.3-6.9c5.3-2.6 7-3.7 11-4.7l5.8-1.5-2.9-3.1ZM267 598.2s1.1 1.2 1.5 2l.8 2a44.5 44.5 0 0 0 8.1 1.6s-.8-1.3-1-2l-.3-1.8-3.7-.7c-1-.2-2.6-1-3.4-1h-2Zm-3.6 1.9-.9 6c-.4 3.6-.4 9.9-1.2 14.5-.8 4.7-1.9 13.2-2.4 17.5-.5 4.3-1.4 9.2-1.4 9.2l3 3.8s1.2-13.7 2.4-22.4 3.8-23.5 3.8-23.5-1.1-2-1.8-2.9l-1.5-2.2Zm-95.8 4.2s.2.3.1.5A96.3 96.3 0 0 1 162 618s.8 1.2.7 2.5c0 1.3-.3 2.2 0 2.5.3.4.6 1.8.6 1.8s.6-2.5 1-3.5c.5-1.1 1.3-2.5 1.9-4 .5-1.5 2-6 2.3-8.1.2-2.2.5-4.2-.1-4.6-.7-.4-.8-.2-.8-.2Zm137.7.2-6.2 1.2c-2 .3-5.7 1-8.6 1.7-3 .7-7.8 3-7.8 3l-.8 3.2s3.8-2.3 6.7-3c3-.5 7.4-1.8 11.6-2h6.4l-1.3-4Zm-70.4 2.2-.4 1.3s.8 1.3 1.5 2c.8.9 1.8 1.4 1.8 1.4s-1-3.1-1.4-3.7c-.4-.7-1.6-1-1.6-1Zm345.8 1.4s.5 4.8-.4 8.4c-1 3.6-4.7 6.3-4.7 6.3s1 1.2 2.2 1.1c1.2 0 4.2-1.3 5.5-5.7 1.4-4.5-2.6-10-2.6-10Zm-359.2.5-.3 1s3.2 1 5.5 1.4l5.5 1.3-1-1.2-5.5-1.4c-1.5-.2-4.2-1-4.2-1Zm101.3 1-2 .1s1.2 1.1 1.6 1.9l1 2 3.6.6 4.6.5s-.9-1.3-1-2l-.6-1.7-3.7-.6c-1.1 0-2.7-.7-3.5-.8Zm-5.4 2.2-.6 6c-.2 3.7.2 10-.3 14.6-.5 4.7-1 13.3-1.2 17.6-.3 4.3-.9 9.3-.9 9.3l3.2 3.6s.4-13.8 1-22.6c.7-8.7 2.3-23.6 2.3-23.6s-1.2-1.9-1.9-2.7l-1.6-2.2Zm42 1.8-6 1.5c-2 .5-5.7 1.3-8.6 2.3-2.8 1-7.5 3.5-7.5 3.5l-.7 3.3s3.8-2.6 6.6-3.4c2.8-.8 7.3-2.4 11.4-2.8l6.4-.4-1.5-4Zm54 0-6.4.2 2.8 4.7 2.6.2c1 0 2.3.4 3.4.3l4 .3-1.4-5.4-5-.2Zm-28.2.8s-4.2.2-6.5.6l-5.3 1s1.3.8 1.8 1.3l1.6 1.5 5.5-.7 5.4-.1-2.5-3.6Zm18.8 2.9-4 12.8c-.2 1-1 2.6-1 2.6l2.4 7.5s2-6 2.8-9c.8-2.9 2.3-9.7 2.3-9.7l-2.5-4.3Zm-33 2.4 1.8 6.5c.7 2.6 1.3 2.4 2.4 5.2 1.1 2.9 2.6 5.8 3.7 9.2 1.2 3.3 3.2 6.7 4.1 8.8 1 2.1 2.2 5.6 3 7.9.8 2.2 2.6 5.9 3.1 9 .5 3 .8 10.1-1.6 13.2-2.4 3.1-6.9 2.5-6.9 2.5l2.8 3.3 2.5.1c1 0 4.1-.2 4.8-1.2.7-1 1.2-2.2 1.1-6.1 0-4-1-9.2-2-12.3-1-3-1-4.9-2-8.4-1.1-3.6-4.5-12.7-6.3-18.1-1.8-5.5-6.7-16.3-6.7-16.3l-3.9-3.3Zm103.5 3.8-7.4 2.8c-2.3.8-6.2 1.7-9.6 2.2-3.3.4-5.2.9-7.2 1l-4 .4 1.9 3.5s3.6.4 7.8-.5c4.2-1 7.4-1.4 12.3-2.7 5-1.3 10-3.1 10-3.1l-3.8-3.6Zm-261.5 4s1.9 5.4 9.8 7.1c8 1.7 10.1.2 10.1.2l-.8-3.8s-5.7 2.7-11 1.2c-5.3-1.6-8-4.7-8-4.7Zm23.7 4 .2 1.9 5.7 4.7.5-2c.3-.7.6-1 .6-1l-3-1.6-4-2Zm206.1 1-.2 3.1v4.4c-.1.8-.5 1.7-.5 1.7l2.6 2.5v-4.6l.2-4-1-1.5-1-1.5Zm79.5 1.1s.4 3-2.1 5c-2.5 1.8-10.7 4-10.7 4l4 3.3s5-1.5 8.6-3.3c3.5-1.8 5.2-2.9 5.5-4.4.3-1.6-1.7-2.6-3-3.5a6 6 0 0 0-2.3-1Zm-14.5 13.2 2 7.8 2.4 1.4s0-1.7-.5-3.4l-1.1-4-2.8-1.8Zm-131 37.5-.1 6.5c0 1.3-.3 2.9-.3 2.9l1.4 1.6a27 27 0 0 1 1.4 2.4s.8-3.6.8-5.5l-.1-4.4-3.1-3.5Z"/><path d="M615.8 529s-4 2-5.7 3.1c-1.8 1.2-7.9 4.5-7.9 4.5s4.5 8.9 6.5 13.8l6.5 16.2s-2.2 1-3.4 2c-1.3 1-7.1 7-8.3 9-1.1 2.1-3 5.4-3 8 0 2.5.2 3.3 0 4.6a22 22 0 0 0 2 9.2c1.5 3.4 4 4.8 4.8 6.5.8 1.8 3 4.9 5 6.2 2 1.4 5.7 4 8.6 5.3 2.8 1.2 4 2.6 7 2.5a20.9 20.9 0 0 0 14.4-7l1 2.1 6.7-2.7 6.9-2.9-3.2-6.7c-1.9-4.3-7.3-18.8-10-24.7-2.6-6-4.9-14.2-7-19.1-2.1-5-3.3-9.8-5.5-14.6-2.1-4.8-3.4-8.4-3.4-8.4l-4.3-3.2c-1.5-1.2-2-1-3.9-1.8l-3.8-1.8Zm.3 4.1s1.4 1 1.9 1 3.8 2 3.8 2l-8.2 3.8-4.4-2.8 6.9-4Zm9.2 7s8 22 11.5 32.1a338 338 0 0 0 8.3 21.3L651 607l-5.4 1.7-4-9.3s-.6 3.6-1.3 6.2c-.8 2.6-2.8 6.2-8 7.7-5.2 1.6-6.4 2-12-2.2-5.4-4.2-5.3-5.2-7.2-8.4a21 21 0 0 1-3-9.5c-.2-2.1-.6-4.8 2.7-8.4 3.3-3.6 4-4.3 8.3-5.9 4.3-1.6 4.7-1.8 7-1 2.2 1 5 3 5 3s-3.8-10-6-15c-2.4-5-4.8-12-6.7-16-2-4-2.5-6.2-2.5-6.2l5.4-2.4c1-.5 2-1.3 2-1.3Zm-17 .7 2.4 1.6c.6.4 2.2 1 2.2 1l5.7 12.2a582 582 0 0 1 6 14.8l-3-2.2-1.7-1.1-5-12c-2.2-4.5-3.5-8.6-4.6-10.5l-2-3.8Zm9 29.2 4.2 3.2-5.2 2c-2 1-8.4 6.5-9.7 8.9a15.4 15.4 0 0 0-1.5 6.7c0 1.3.5 5.2.5 5.2s-1.3-3.2-1-6.7c.3-3.4-.4-5.5 3-10.1s5.8-7.2 7.2-8l2.5-1.2Zm-457-40s-2.7 3.7-3.5 5.3c-.8 1.5-2.3 3.8-3.6 7-1.3 3.1-4.4 14-7.1 20.6a85 85 0 0 0-4.2 11.3 153 153 0 0 1-5.2 16.2c-1.9 4.5-2.5 5-3.6 8l-3.9 10.4 1.5 5.1a140 140 0 0 1 1.7 6.5l6.5 2.4c1.5.5 2.4.1 3.5.5l7.6 2.8 2.2-4.7c.7-1.8 1-2.7 2-4.4 1-1.7 2.1-2.9 2.9-3.8l5.4-6.6s-1.4 4.3-2.2 5.5c-.9 1.2-3 6-3 6l1.2 4.5 1.5 7.4 16.5 6 1.5-3.1c.6-1.4 4.5-13.9 6.3-18.3l2.7-6.7c.8-1.8 1.5-5 1.7-7 .2-2.2 1.4-7.6-.2-11.2a19.6 19.6 0 0 0-5.6-7.5c-2.2-1.9-3.6-3.2-6.4-4.2-2.9-1-8.5-.7-8.5-.7s.5-.3 1.9-3.4c1.3-3 2.6-6.8 3.7-10.3 1-3.6 2.4-6.6 3.7-9.3 1.2-2.6 3.4-9.2 3.4-9.2s-.5-2.7-.9-3.9l-.9-3.3-.4-2.5s-5.1-1-7.3-1.6l-11-3.7Zm4.3 6s3 1.3 4.7 1.8c1.7.5 5.4 1.1 5.4 1.1l-.1 1.7c-.1.7.4 2 .4 2s-5.6-1.2-6.7-1.6c-1.2-.4-3-1.3-3-1.3l-.7-3.7Zm-4 1.6.8 3.8c.2 1 .8 2 .8 2l-6.4 15c-1.3 3.2-.1 2.5-4 12.1l-17 41.8-1.1-2.9c-.2-.4-.5-.6-.5-.6s.4-1.9 1.7-5.5c1.2-3.6 1.7-1.6 5.3-10.6 3.7-9.1 10.2-28.7 12.2-34 2.1-5.2 4.1-13 4.8-15 .7-2 1.1-1.9 1.9-3.1.8-1.3 1.4-3 1.4-3Zm5.2 7.4a64.4 64.4 0 0 0 9.4 2.3l-1.7 4.5c-.8 1.8-1.2 1.5-3 6.3-1.8 4.7-1.6 5.4-2.8 8.7-1.2 3.4-2.7 4.7-4.4 9.2l-3 8.3a737 737 0 0 1-4 11.5s3.9-2.3 5-2.4c1.1 0 5-1.7 6.5-2 1.5-.3 5-.3 7.7.6 2.8.8 7.4 3.5 8 5.2.8 1.7.3 5.8-1 8.7-1.1 3 0-.2-2.5 6.2s-6.1 17.8-6.1 17.8l-7-2.9s3-5.9 4-8.7a102 102 0 0 0 2.6-11c.5-2.4-.6-6.3-3.7-7.7-3-1.4-6-.3-8.4 1-2.2 1.4-6.8 8-8.2 9.7-1.4 1.7-1.2 1-2.7 3.3a36.4 36.4 0 0 0-2.8 6.3l-2.4-.9c-1.4-.5-2.6-.4-4-.8l-3.5-1.2 2.1-5.8c2.7-7.2 10.9-26 12.8-30.5 1.8-4.6 4.4-13.1 5.5-16.2 1.2-3.1 3.2-7.5 4.2-10.2l3.3-9.3Zm6.5 36.2 1.2.3a28.8 28.8 0 0 1 8.6 6l2 3.4s-2.9-1.7-6.5-3.4-6.6-1-7.6-1h-2.7c-.4-.2-2.5.7-2.5.7l1.5-4.6s2.7-1.3 4-1.4h2Zm-4.8 23.1s.1-.2.8.2c.6.4.3 2.4 0 4.6-.2 2.1-1.7 6.6-2.2 8-.6 1.6-1.4 3-1.9 4l-1 3.6s-.3-1.4-.6-1.8c-.3-.3 0-1.2 0-2.5s-.7-2.5-.7-2.5.8-1.7 1.8-3.3c1-1.7 3.8-9.5 4-9.8l-.2-.5Zm509-72.6s-2.1.8-3.3 1.5c-1.3.8-8.3 5.9-8.3 5.9l.4.6s-5.3 0-8.8 1.6a24.8 24.8 0 0 0-11.4 11c-2.5 5.3-3.8 12 2.2 22.8 6 10.7 8 11.6 10 14.7 2.1 3.2 9.4 7.1 12.1 7.6 2.8.6 9.3 1.8 14.9-1 5.5-3 7.3-6.5 7.3-6.5l6.8.9 6.8-3.5 6.2-3.1-3.2-7c-1.5-2.9-3.5-5.5-5.5-9.7-2-4.1-4.6-8.7-7.2-13.7-2.5-5-3.2-6-5.6-11-2.4-5-3.5-6.5-3.5-6.5s-2.1-.8-3-1.4c-.8-.6-3-1.8-4.3-2.1-1.3-.4-2.6-1.1-2.6-1.1Zm0 4.2s.3.7.7.8l3.7 1.2-6.7 3.5-3.7-1.6 3.2-2 2.8-1.9Zm7.8 5.9s3.9 7.2 6.2 11.8c2.3 4.7 4.4 8.3 6.3 11.4 1.8 3.2 3.7 8.3 5.5 11.4l3.2 5.7-2.3 1c-1.6.6-3.6 1.7-3.6 1.7l-2.7-5.2-3.1-6.3-3.8 9.8c-1.5 3.6-2.3 5.4-7.3 8.3-5 3-9.7 1.4-12.1 1.3-2.5-.1-7.9-4-9.1-5.3-1.3-1.3-1.3-.6-4.3-7.1s-2.4-9.2-2.5-12.4a17 17 0 0 1 10.4-17.5c1.3-.4 2.7-.6 4.5-.3 3.4.5 5.6 1.9 8.1 3.3 2.6 1.4 6.2 4.2 6.2 4.2l-2.4-6.3a237 237 0 0 0-2.8-6.7l3.8-1.9c1-.4 1.8-1 1.8-1Zm-17.6 2.4c2-.3 6.7 1 6.7 1l.4.7s-7.3-2.8-13.2 1c-6 3.7-7.3 6.9-8.8 9.9-1.5 2.9-2 13.5-2 13.5s-2.6-6.2-2.4-10.4c.2-4.1 1.5-6.5 3.8-9.5 2.2-3 5.8-4.3 7.1-5 1.4-.7 6.5-1 8.4-1.2Zm-545 2.9c-2 0-7.7.7-10 2-2.2 1.4-10 5.7-12.2 8.3-2.2 2.6-12 15.2-12.5 21.7-.4 6.6.7 13.6 9.8 22.2 9 8.5 18.7 12.5 18.7 12.5s1.6-4.7 2.6-6.8c1-2.2 4.3-7.6 4.3-7.6l-.1-5.8-.2-3.3s-6-3.3-8-5.5c-2-2.3-2.3-6.4-2.6-7.6-.4-1.2 0-2.2.6-3.1.6-.9 6.7-.2 8.5-.2 1.9.1 3.2.4 4.7 1 1.4.4 6.7 2.7 6.7 2.7s1.9-2 3.3-4.7c1.3-2.6 5.4-8.5 5.4-8.5s0-4.1.2-5.8l.4-6.6s-3-2.1-4.4-2.5c-1.4-.4-3.8-2.3-6-2-2.1.2-7-.4-9.2-.4Zm7.5 4.4c1 0 1.8 0 2.9.3 2.2.7 5.2 2.3 5.2 2.3s-.5 1.3-.4 2.3v2.1s-4.3-3.4-10.4-4c-6.1-.6-6.1-.5-11.2.3-5 .8-11.3 4.5-11.3 4.5s6-5.6 11.1-6.8c5.2-1.3 7.1-.4 10.4-.6l3.7-.4Zm-8.5 7.7c2.8 0 5.4 0 7 .5 3 1 8 3.9 8 3.9l-5.1 8.1s-3.5-1.7-5.1-2.1c-1.6-.4-3.1 0-4.5-.1s-6-1.8-8.6-.8c-2.6 1-6.6 3-8.4 7.9-1.8 4.8-3 13.6 2.4 18 5.3 4.2 9.8 6.3 9.8 6.3l-1.5 3.1-1.4 2.9-6.6-4c-2.4-1.6-13-9.9-14-16.2-1-6.4-.7-8 3.4-14.2a34.3 34.3 0 0 1 16.7-12.3 41 41 0 0 1 8-1Zm-13 21s1.5 5.1 3.3 7.7c1.8 2.6 7 5.3 7 5.3s-.2.8-.1 1.5l.2 1.3s-.9-.3-4.4-2.3a16 16 0 0 1-6.3-6.8c-.8-1.9.2-6.7.2-6.7ZM671 557.5a10 10 0 0 0-4.3 1.2c-3.3 1.6-3.2 3.4-3 4.3 0 1-1 2.6-.8 5.7.3 3 .6 7 3 11.1 2.3 4.3 7 7 10 6.9 2.8-.2 6.4-2.2 7.6-4.3 1.1-2 .9-4.2.6-7.7a36 36 0 0 0-4.7-12.9 11 11 0 0 0-5-3.7c-1-.5-2-.7-3.4-.6Zm-1.6 5 1.1 2.7c.5 1.2.9 2.8.7 5.4-.3 2.6-2.4 6.1-2.4 6.1s-1.3-4-1.6-5.7a24 24 0 0 1 0-6c.2-1.7 2.2-2.5 2.2-2.5Zm5.3 1.3s.9.1 2 2.2c1.1 2 4.5 11.5 3 14a4.8 4.8 0 0 1-4.6 2.4c-.8 0-3.4-2.2-3.4-2.2s3-5 3.5-8.9c.5-3.9-.5-7.5-.5-7.5ZM570.5 579l-6.8.9a22 22 0 0 0-12 6.7c-3.1 3-5.9 13-6 16.7-.3 3.7 0 9 1.6 14.8 1.6 5.9 5.3 7.5 7.8 10.5a40 40 0 0 0 9.2 7.7c2.7 1.7 4.5 3.2 8.5 5 4 1.6 8 .2 10.3-.3 2.3-.4 10.6-1.5 15-9 4.5-7.4 2.6-21.8 1-29-1.5-7.2-1.4-4.9-2.7-7.3-1.2-2.4-2.5-3.8-4.5-7-2-3-5-4.7-7.9-6.2-2.9-1.5-4.6-3-7.8-3.5a26 26 0 0 0-5.7 0Zm2.3 4.4s-2.7.6-4.5 1.4c-2 .9-2.6 1-6.4 4.6a48 48 0 0 0-9.3 15.6c-2 4.8-1.3 10.4-.7 13a65.5 65.5 0 0 1-2.4-14.4c.3-4.6 3.3-12.4 5.5-14.2 2.2-1.8 2.5-2.6 5.6-4 .8-.4 2-.7 3.3-1 3.8-.7 8.9-1 8.9-1Zm7.4 4c2.5 0 4.5.6 5 1 1 .6 8 9.4 8.9 13 .8 3.6 2.2 14.5 1.6 19.3-.5 5-1.2 7.8-2.5 9.6a22.8 22.8 0 0 1-6.8 5c-1.8.8-7.7 2.5-11.8 1.7-4-.8-7.5-3.7-10.5-6.6-3-3-7.1-7.5-8.3-13.2-1.1-5.7-.3-10 2.3-14.8 2.5-4.9 7.7-12.5 13.5-14.3 3-.8 6-1 8.6-.8Zm-356.2-5c-1.2 0-2.5.2-4 .5a65 65 0 0 0-18.3 7.4 49 49 0 0 0-10.5 17.2c-1.7 6-2 23.1 2.8 29.6s7.4 7.6 9.4 9c2 1.5 10.5 6.7 16.1 7.8 5.6 1.1 7 1 10.6-.2 3.6-1.1 9.2-4 12-7 3-3.2 2.8-3.2 2.8-3.2l2-5.8 1.5-5.1-1.3-.6c-.9-.4-4.8-2.8-6-3.2-1.3-.3-6-2.4-6.7-2.6l-1.4-.4s-2.6 1.5-4 1.8c-1.2.2-4.9.8-7.3 0-2.4-.8-4.2-2.1-5-2.7-.7-.6-2.6-2.8-2.6-2.8l.2-1s11.7 2.9 17.1 3.9c5.4 1 21 4.6 21 4.6s2.5-7 2.6-12.2c0-5.1-.9-8-1.6-10.8-.7-2.7-.8-4-1.8-6.6-1-2.7-1.2-1.9-2.6-4.2-1.3-2.2-2.5-4.3-4.1-6a36 36 0 0 0-11-5.8c-3-.8-6.2-1.7-9.9-1.6Zm1.6 4.3a31.9 31.9 0 0 1 14.5 5.4c3.6 2.7 4.2 5.1 4.2 5.1s-2.3-2-10.6-4.6A26 26 0 0 0 214 595a50.3 50.3 0 0 0-12 8.8 89 89 0 0 0-8 12.3s.1-4.2 1.2-8.3a49 49 0 0 1 9-14c1.6-1.4 4.4-2.3 7.5-3.5 3.1-1.3 8.5-4.1 14-3.6Zm-2 10a21.3 21.3 0 0 1 9.4 1c3.7 1.5 7.5 2.8 11.8 5.9 4.4 3 5.1 8.6 5.3 11.1.2 2.5-.6 9.8-.6 9.8s-14-4.1-19.4-5c-5.6-.9-19-3.8-19-3.8l-1 3c-.3 1.1-2.2 5.4-2 8 0 2.5.7 3.6 2.9 6.5 2.2 3 6.1 5 10.8 6.2 4.6 1.2 7.3 1.2 9.5.7a11 11 0 0 0 4-1.9l4.5 4s-2.6 2.3-4.5 3.6a18.3 18.3 0 0 1-14.6 2.8c-7.5-1.8-10.6-5-11.9-5.6-1.3-.6-1.2-.4-2.9-1.7-1.6-1.3-4.4-3.7-6.7-6s-2.8-6.6-2.7-9c0-2.5.6-4.8 1.8-8 1.2-3 3-5 5.7-9s7.4-7.5 13-10.6a18 18 0 0 1 6.6-2Zm-10.7 30.7s2.8 3.1 8 4.7a18.1 18.1 0 0 0 11.1-1.2l.8 3.8s-2.1 1.5-10-.2c-8-1.7-9.9-7.1-9.9-7.1Zm23.7 4a244 244 0 0 0 7 3.6s-.3.3-.6 1l-.5 2-5.8-4.7v-2Zm392-45.8c-.8 0-2.6.4-4.3 1.2-1.7.8-3.4 2-4.3 3.3-1.8 2.5-1.8 8-.2 11.4a9.4 9.4 0 0 0 6.8 5.2c1.8.3 6.8-1.8 6.8-1.8s1.6-1 2.6-2.6c1-1.7 1.1-5.3-.8-10.1-2-5-4.7-6.4-6.5-6.5Zm-.7 4.4 1 .1c.2.2 1.3 1.6 2.4 4.1 1 2.5 1.3 6 0 6.8-1.2.9-5.2 1.3-5.2 1.3l1.7-3.6c.6-1.4.8-4.6 1-5.6 0-1-1-3.1-1-3.1Zm-3.9 1.6s.9 2.4.4 3.5l-1.3 3.9s-.4-2.2-.2-3.8c.2-1.6 1.1-3.6 1.1-3.6Zm-95.2-5.3s-4.4.4-6.1.9c-1.8.4-3 1.3-4.3 2-1.3.7-5.3 2.9-7.1 4.3-1.9 1.4-4.9 3-6.6 5a31.3 31.3 0 0 0-4.4 10.2c-.5 2.6-.3 7.6.4 10.4a16 16 0 0 0 4.8 7.4c1.6 1.1 5.9 4.3 7.5 4.9l4.8 1.6s0 1.6-1.1 2.4c-1.2.9-6 2.6-8.6 3.6l-5.8 2s.5 2.8 1 4.4l3.2 12.4a21.2 21.2 0 0 0 6 3.8l2.1 1.4s2.3-.6 4.5-.9c2.3-.3 4 .2 6.8-.5 2.8-.8 4.6-2.5 8.4-3.5 3.9-1 7.5-3.9 10-6.5s5.5-7.3 4.6-11.8a25.1 25.1 0 0 0-7-14.1c-4.4-3.7-9.2-5-12.5-6-3.3-1-5.6-1-6.2-3.4-.6-2.4 8.6-3.3 12.5-4.1l6-1.4-.6-2.3-1.5-4.6-2-6.6-1.4-4-3.6-3.2-3.8-3.8Zm-1 4.2 2.8 3-5.9 1.6c-3.9 1-5.6 2-10.9 4.7-5.2 2.6-8.3 7-8.3 7s1.5-4 2.1-5a27 27 0 0 1 6.2-4.8c1.3-.7 4.2-3 6.2-3.9 2-.9 3.4-2.2 4.4-2.5 1-.4 3.3-.1 3.3-.1Zm5.8 7a117 117 0 0 0 3 10.2s-5.5.4-11.2 2c-5.7 1.6-7 4.6-6.3 7.4.8 2.7 2 4.6 5.3 5.7 3.3 1.1 11.1 3 13.4 5.2 2.3 2.2 6.1 7 6.4 12.2.2 5.3-2.5 9.7-8 12.5-5.3 2.7-6.9 3-11.6 4.5-4.7 1.4-3.5.5-5.4.6l-2.9.2s-.1-2.2-.6-4.1l-1-3.8s2.1-.3 4.5-1.2c2.4-.9 13.5-5.4 13.2-10.2-.2-4.8-3.4-7.5-7.8-9.3-4.3-1.8-6.3.4-12.7-3.8-6.4-4.2-7.4-7.5-4.2-13.4 3.2-6 9.4-9.6 16-11.8l7.5-2.3 2.4-.6Zm-11.4 36s1.1.3 2.4 1.1c1.2.9 3.2 2 2.9 3.5-.3 1.5-2 2.6-5.5 4.4a63.7 63.7 0 0 1-8.7 3.3l-3.9-3.2s8.2-2.3 10.7-4.2c2.5-1.8 2-4.9 2-4.9Zm-14.5 13.2 2.8 1.9 1 3.9c.5 1.7.6 3.4.6 3.4l-2.4-1.4-2-7.8Zm-247-53.9s-1.4 6.1-1.8 9.7c-.5 3.6-1.4 17.3-2.6 24.4-1.3 7.1-3.2 21.7-3.2 21.7l3.3 5.1 3.5 5.7a587.7 587.7 0 0 0 14.3 2.3s1.5-10 3.2-15.9c1.7-5.8 2.2-10 5.7-13.2 3.4-3.2 9.7-6 14.6-6.3l11.8-.6 1.7-9.3c.8-4.8 1-7.3 1-7.3l-2-4.3-1.7-4.6s-7.8 0-14 1.6c-4.6 1.1-11.6 3.5-11.6 3.5l-2.1-4.6-2.1-5s-2.4 0-4.3-.4c-1.8-.4-3.4-1.4-5-1.6-1.5-.2-2.8 0-4.6-.2a44 44 0 0 1-4.1-.7Zm6.2 5.4h2c.8 0 2.3.8 3.4 1l3.7.7.4 1.8c.1.7 1 2 1 2l-4.6-.8-3.6-.8-.8-2c-.4-.8-1.5-2-1.5-2Zm-3.6 1.8a171.4 171.4 0 0 0 3.3 5s-2.6 14.9-3.8 23.6c-1.2 8.7-2.5 22.4-2.5 22.4l-2.9-3.8s1-5 1.4-9.2c.5-4.3 1.6-12.8 2.4-17.5.8-4.6.8-10.9 1.2-14.6.5-3.7 1-6 1-6Zm42 4.4 1.2 4-6.4.2c-4.2 0-8.7 1.4-11.6 2-2.9.6-6.7 3-6.7 3l.8-3.3s4.9-2.3 7.8-3c2.9-.8 6.6-1.4 8.6-1.7l6.2-1.2Zm-35 2.4 8.1 2.1s-1.4 4.4-2.1 7.6c-.7 3.2-1.3 8.8-1.3 8.8s2.7-3 6-5.2c3.5-2.3 8.3-4.4 13.6-5.8 5.4-1.4 12.6-.7 12.6-.7l-1.8 7.2s-8.8.7-16.2 2.8c-7.3 2-11.5 8.2-14 13.7s-5 19.2-5 19.2l-6.6-1.3 3-24.7c1.1-9.6 3.7-23.7 3.7-23.7Zm304.4-8.7-2.2.4c-2.7.7-7 8.2-6.2 14.4.8 6.3 1.7 10 5.5 12.6 3.8 2.7 5.5 3.3 7.3 2.7 1.9-.6 6.3-2.7 7.7-6.3 1.3-3.7 1.6-7.6.1-11.7a18 18 0 0 0-5-7.8 20.5 20.5 0 0 0-6-3.8l-1.2-.5Zm-2.1 5.3s2.6 2.2 3.5 3.8c.8 1.6 1.4 7.2 0 9.2-1.2 2-4 3.3-4 3.3s-1.5-4.8-1.4-7.3c0-2.6 1.9-9 1.9-9Zm8 4.6s4 5.6 2.6 10c-1.3 4.5-4.3 5.7-5.5 5.8-1.2 0-2.2-1.1-2.2-1.1s3.8-2.7 4.7-6.3c.9-3.6.4-8.4.4-8.4Zm-353-7c-1.3 0-2.3.1-3 .3-1.8.5-4.5 2.9-6.2 4.8-1.8 1.8-3.1 5.6-3.1 5.6s3.4 1.3 7.3 2.4l19.4 4.6s.4-4.8 0-7.7c-.4-3-2-5.3-2.5-6-.6-.7-.4-1.1-4.4-2.7a18.2 18.2 0 0 0-7.5-1.3Zm.3 3.8c1 0 2.7.3 2.7.3l-.3 1-2.4-.4-2.6-.6 2.6-.3Zm6.8 1.8s1.2.3 1.6 1c.4.6 1.4 3.7 1.4 3.7s-1-.5-1.8-1.3c-.7-.8-1.5-2.1-1.5-2.1l.3-1.3Zm-13.3 2s2.7.8 4.2 1l5.6 1.4.9 1.2-5.5-1.3-5.5-1.4.3-1Zm92.8-3.9s-1 6.2-1.2 9.8c-.2 3.6-.3 17.3-1.1 24.5a807 807 0 0 0-1.9 22 198.9 198.9 0 0 0 7.5 10.3 663.6 663.6 0 0 0 14.3 1.5s1-10.3 2.3-16.2c1.3-5.9 1.6-10 4.8-13.5 3.2-3.4 9.3-6.5 14.2-7.2l11.8-1.3 1-9.4.5-5.5c.7 3.2 1.5 6.8 2 8.2 1 2.9 2.4 4.4 3.2 6.3.8 1.8 2.3 6.8 3.6 9.7l4.7 11c1 2.5 3.1 7.2 3.9 9.6.7 2.3 2.4 10.1-.2 12.2-2.7 2-10.6.9-10.6.9s-.5 6.9-.4 9.7c0 3-.3 8.3-.3 8.3a181.2 181.2 0 0 0 5.3 6.8s15 1 21-1.2c6-2 10.4-11.8 11.4-14.2.9-2.5 1-3.5 1.5-9.6.5-6 2.5-15 3.4-19.6 1-4.7 3.5-11.7 4.4-14.5 1-2.7.9-3.3 1.6-6.7l3.3-16-3.5-11.6s-4.4-.5-6.2-.5c-1.9 0-3.7.5-5.6.6h-6.4s-1.4 2.3-2 4.2c-.4 2-3.7 12.6-3.7 12.6l-2-6.3-4.8-5.3a83.4 83.4 0 0 1-3.5-4.7l-4.7.1a54.9 54.9 0 0 0-16.6 3.7l.6 3c-.6-.9-1-1.9-1.6-2.7-.7-1.3-2-4.5-2-4.5s-7.7.5-13.8 2.4a176 176 0 0 0-11.3 4.2s-1.4-2.2-2.5-4.4l-2.4-4.9s-2.4.3-4.3 0c-1.8-.4-3.5-1.2-5-1.4-1.6-.1-2.9.2-4.6.1-1.8 0-4.2-.4-4.2-.4Zm8.5 4.8c.8 0 2.4.7 3.5.8l3.7.6.5 1.8c.2.6 1 1.9 1 1.9l-4.5-.5c-1.7-.2-3.6-.7-3.6-.7l-1-2a11 11 0 0 0-1.6-1.8h2Zm-5.4 2.2a227 227 0 0 0 3.5 4.9s-1.6 14.9-2.3 23.6c-.6 8.8-1 22.6-1 22.6l-3.2-3.6s.6-5 .9-9.3c.2-4.3.7-12.9 1.2-17.6.5-4.6.1-10.9.4-14.6l.4-6Zm42 1.8 1.6 4s-2.3 0-6.4.4c-4.1.4-8.6 2-11.4 2.8-2.8.8-6.6 3.4-6.6 3.4l.7-3.3s4.7-2.6 7.5-3.5c2.9-1 6.6-1.8 8.5-2.3l6.2-1.5Zm54 0c1.9 0 5 .3 5 .3l1.4 5.4-4-.3c-1.1.1-2.5-.3-3.4-.3l-2.6-.2-2.8-4.7 6.4-.1Zm-28.2.8 2.5 3.6-5.4.1-5.5.7-1.6-1.5-1.8-1.4 5.3-.9c2.3-.4 6.5-.6 6.5-.6Zm18.8 2.9 2.5 4.2-2.3 9.8-2.8 9-2.5-7.5s1-1.6 1.2-2.7c.2-1.2 3.9-12.9 3.9-12.9Zm-79.2.9 8.2 1.6s-1.1 4.5-1.6 7.7c-.6 3.2-.8 8.8-.8 8.8s2.5-3 5.8-5.5c3.2-2.5 7.9-5 13.1-6.6 5.3-1.8 12.4-1.5 12.4-1.5l-1.2 7.3s-8.8 1.2-16 3.7c-7.2 2.5-11 9-13.1 14.6-2.2 5.7-3.8 19.5-3.8 19.5l-6.7-.9s1-15.3 1.4-24.9c.6-9.6 2.3-23.8 2.3-23.8Zm46.1 1.5 4 3.3s4.8 10.8 6.6 16.3c1.8 5.4 5.2 14.5 6.3 18 1 3.6 1 5.5 2 8.5 1 3.1 2 8.4 2 12.3 0 3.9-.4 5-1 6-.8 1-4 1.4-4.9 1.3l-2.6-.1-2.7-3.3s4.5.6 7-2.5c2.3-3 2-10.1 1.5-13.2-.5-3.1-2.3-6.8-3-9l-3-7.9c-1-2.1-3-5.5-4.2-8.8-1.1-3.4-2.6-6.3-3.7-9.2-1.1-2.8-1.7-2.6-2.4-5.2l-1.9-6.5Zm20 2.6s.8 1 1 1.6l4.1 14.1c.5 1.4 3.2 10 3.9 11.3l1.4 3.4 2.8-8.2a208.4 208.4 0 0 0 6.2-21.6l2.7.2 3.8.2 2.6.2s-2.3 9.8-2.8 13a158 158 0 0 1-4.5 15.8c-1.8 5.6-4 16.8-5.2 22.3-1.2 5.5-.3 7.3-1.5 10.7-1.2 3.3-4.3 9.4-7.6 10.8-3.2 1.5-14.1 1-14.1 1s.6-1.8.7-3.7l.2-3.3s4 .4 6.7-.7c2.7-1 5.4-4.9 5.4-9.6 0-4.8-2-14.7-4-20.3-1.9-5.6-5.1-16.4-6.5-20.3-1.4-4-7-16.5-7-16.5s4-.4 5.3-.2c1.3.2 6.3-.2 6.3-.2Zm-14.1 62 3 3.5.2 4.4c0 1.9-.8 5.5-.8 5.5s-1-2-1.4-2.4l-1.4-1.6.3-3v-6.4Zm98-66.7s-4.3 2.3-8.8 3.6a95.6 95.6 0 0 1-15 2.7c-3.2.2-4 .2-6.1.6l-5.9 1-.4 6.6c-.1 2.9 0 5.6-.2 7.5l-.6 4 8.6 8.2s5.6-.5 7.5-1l5-1.2 5.2-.6c1.7-.2 4.4-1 7-1.8 2.7-.7 6.4-1.7 11-3.5 4.7-1.7 7.7-3.4 7.8-3.4 0 0-1.6-3.5-2.1-5-.6-1.7-1-1.5-1.6-3.4-.7-1.8-1.1-4-1.1-4s-3-3.5-4.4-4.8a62.5 62.5 0 0 0-4.2-3.9c-.6-.4-1.6-1.6-1.6-1.6Zm-.3 5.9 3.8 3.6s-5 1.8-10 3.1-8.1 1.8-12.3 2.7c-4.2.9-7.8.5-7.8.5l-1.9-3.5 4-.4c2-.1 3.9-.6 7.2-1 3.4-.5 7.3-1.4 9.6-2.2 2.3-.7 7.4-2.8 7.4-2.8Zm7.2 7.3 1.3 3.9c.5 1.4 1.6 3.2 1.6 3.2l-7.2 2.6c-3 1-5.5 1.5-8.2 2-2.6.7-6.2 2-7.9 2.3-1.6.3-2.4 0-4.2.4-1.9.4-3.9 1.2-5 1.3l-3.2.3v-4.3l.2-4.8h3.6l4-.5a106.1 106.1 0 0 0 25-6.5Zm-38.9 1.8s1 1.1 1.1 1.5l1 1.5-.2 4v4.6l-2.6-2.5s.4-1 .4-1.7l.1-4.4.2-3Z"/></svg>
