<svg xmlns="http://www.w3.org/2000/svg" x="0" y="0" viewBox="0 0 800 800"><path fill="#fff" d="M541.5 119.2c-5.6-1.9-11.4-3-15.7-3.8-50-8.8-93.9-14.4-145.6-12.6-29.7-.6-57 .8-82 2.4-23.4 1.5-39.5 5.7-59.8 11l-8 2c-15.6 4-23.2 14.6-21.4 30 3 25.1 6 49.9 10.7 75.6 17 94.3 23.4 134.8 34 201.9l12 76c2.2 17.2 9.7 25.3 23 34.3a72.4 72.4 0 0 0 28.4 12c14.7 3.2 38.4 5.4 50 6.2 17.3 1.2 29 2 39 2 18.6 0 32-2.7 65.4-10.5l1.3-.3c8.6-2 16.7-4 23.1-10 6.7-6.3 10.2-15.8 11.7-30.8l.4-4.7 1.7-17.2c8.7-53.3 16.7-94 23.7-129.8 11.6-59.2 21.7-110.3 31.3-197 2.3-20-4.2-30.4-23.2-36.7zm182.6 467-.3-.5-4.1-8.2-.3-.4c-2.8-5.6-5.7-11.3-8.3-16.9l-9.5-20.6v-.3a10 10 0 0 0-3-3.7l-8.8-7.1a10 10 0 0 0-10.1-1.5l-10.9 4.6a10 10 0 0 0-5.9 7 35 35 0 0 0-25.4 21.1l-7.9-20.8v-.1a10 10 0 0 0-2.7-4l-7-6.3a10 10 0 0 0-11-1.5l-15.6 7.5a10 10 0 0 0-5 12.6l9.6 25.2a38.6 38.6 0 0 0-26.9-3.8 43.5 43.5 0 0 0-27.5 19l-2.7-2.4a10 10 0 0 0-6-2.6h-.3a66.7 66.7 0 0 0-35.2 5.7 37.5 37.5 0 0 0-18.6 19.5l-7.8-4a10 10 0 0 0-7.6-.7l-.2.1c-4.4 1.4-8 2.3-12.6 2.7l-14.7 1c-2.5.3-5 .4-7.6.6h-1l-3.8-9.6a10 10 0 0 0-10-6.4l-14.7 1a10 10 0 0 0-8.6 6.3l-5.5 13.8-2.8-4.2a10 10 0 0 0-.6-.8l-8.7-10.8A10 10 0 0 0 362 594l-3.2 1.6-.1-.3a10 10 0 0 0-7-5.3h-.2a38.7 38.7 0 0 0-19 .6l-1.8-2.7a10 10 0 0 0-11.8-3.8l-8.2 3.1a10 10 0 0 0-2.7-1.1h-.2c-5-1.4-8.7-1.7-14.4-1.3h-.1c-1.7.1-3 .4-4.4.7l-1.7-2.9a10 10 0 0 0-11.5-4.5l-12.1 3.7c-1 .3-1.8.7-2.5 1.2-1.9-2.3-4-4-7.4-5.9l-.7-.4a49.2 49.2 0 0 0-26.8-5.6 44 44 0 0 0-20.8 5.5 44 44 0 0 0-9.6 5.9c-1.9-4-5-7.8-9.7-10.6-2-1.1-4.4-2.6-7.1-3.7l7.8-20.8v-.2c.9-2.3.9-4.9 0-7.2l-3.7-9a10 10 0 0 0-7.8-6.2l-13.1-2a10 10 0 0 0-10.7 6l-8 19a62.8 62.8 0 0 0-29-13.2c-18.4-2.2-31 4.4-39.7 20.7A36.6 36.6 0 0 0 72 586c4 14 12.5 20.8 21 26 9.8 6 25.2 7.7 25.3 7.7h.3a10 10 0 0 0 5.6-1.1l4 6.6c1.3 2 3.1 3.4 5.3 4.1l13.5 4.8a10 10 0 0 0 9-1.2l6.4 6.4a10 10 0 0 0 6.8 3l8.8.2h.3a10 10 0 0 0 9.5-7l.1-.4.8-2.6.8 1.3a42.2 42.2 0 0 0 26.6 19.9h.2a51 51 0 0 0 13.4 2.2c4.2 0 8.2-.8 12.7-2.4h.1c3.5-1.4 6.2-3 8.3-4.8.4.7.8 1.5 1.4 2.2l8.4 9.5a10 10 0 0 0 4.7 3l14.3 4.2a10 10 0 0 0 12.8-8.7l1.3-15.5 2.8-14.3h.7l1.4.2.3.3 1 .8-2.6 19.5a10 10 0 0 0 2.8 8.3l9 9a10 10 0 0 0 4.9 2.7l14.5 3.2a10 10 0 0 0 12.2-9.5l.4-15.5 1.8-14.5h.7l1.4.1.3.3a10 10 0 0 0 9.3 1.9l11.7 21.8-8.8 24.1a10 10 0 0 0 3.5 11.5l8 6a10 10 0 0 0 3.8 1.7l12.5 2.8a10 10 0 0 0 11-5.2l20.2-38.8.5-1.1 4.1-11.1 13 5.4h.1a10 10 0 0 0 4.6.7h.1c16.7-1.3 30.2-3.4 47.6-6.3h.2c2.1 2.6 4.6 5 7.5 7.2a40 40 0 0 0 26.7 9.3c1.7 0 3.5 0 5.4-.2 11.6-.8 25-8.2 25.1-8.3l.3-.2a10 10 0 0 0 5-9l-.2-2.3h.1c7.1 3.6 15.7 5.3 27 5.3 2.1 0 4.4 0 6.9-.2a33 33 0 0 0 26-15.7c1.3-2 2.5-4.3 3.4-6.6a10 10 0 0 0 3.5 2l12.9 4.3a10 10 0 0 0 6.8-.1l10.1-4c5-2 7.6-7.5 5.8-12.5a36.8 36.8 0 0 0 41.5-10l1 .1a10 10 0 0 0 5.3-.9l12.6-5.9a10 10 0 0 0 4.7-13.5z"/><linearGradient id="a" gradientUnits="userSpaceOnUse" x1="387.7" y1="507.5" x2="387.7" y2="263.1"><stop offset="0" stop-color="#e0003f"/><stop offset=".5" stop-color="#ff4a4a"/><stop offset="1" stop-color="#ffb578"/></linearGradient><path d="M395.6 507.4c-46.3 1.5-87.4-18.5-97.7-46.9-6-16.7-34.3-196-34.3-196l65.2 1 137-2.4 46 4.9s-23.6 179.8-29.5 195c-6 15.4-33.7 42.7-86.7 44.4z" fill="url(#a)"/><path d="M263.6 264.6c-.7-8 31.6-2.5 84.8-2.1 15.8 0 85.9-4.8 99.5-4.1 45.7 2 64.4 4.2 64 9.6-.3 3-19.2-3-57-1.7-32.6 1-74.5 8.7-105 8.5-66-.5-85.8-4.2-86.3-10.2z" fill="#ffc9a8"/><path d="M229.5 222C252.2 347 256 378 275.6 500.4c1.7 14 7.6 19.8 18.7 27.3a62.5 62.5 0 0 0 24.9 10.6c13 2.8 35.3 5 48.6 6 48.5 3.2 51.2 3.4 101.4-8.4 16.6-3.9 25.8-5.3 28.4-32.3.6-5.5 1.5-16.7 2.2-22.3 22.8-139.5 39.4-186.5 55-326.5 1.7-15.2-2-21.3-16.4-26-4.7-1.6-9.5-2.7-14.4-3.5-51.1-9.1-93.9-14.2-143.8-12.5-28.5-.6-55 .7-81.3 2.4-25.4 1.6-41.5 6.4-66.1 12.7-10 2.6-15.1 8.2-13.8 19 3 25.6 6 49.7 10.5 75zm36.8-97.3a877.5 877.5 0 0 1 205-3.2 232 232 0 0 1 66.6 15c3.8 1.4 10.6 1.2 10 7-.4 5.4-6.8 5.4-11 6.3-27.5 6.1-46.6 10.2-74.6 12.7-12 1.1-23.5 2-35 2.6a206 206 0 0 0-4.8-17.6c-2.8-9 2.2-17.8 3.4-20.7.2-.5.5-.8.8-1.2 1-1.6.6-3-.6-4.2-3.5-3.5-14.8-2.8-18 1.1-7.1 8.8-8.1 27.8-2.3 37.5.8 1.4 4.4 3.2 7.3 5.7a530.8 530.8 0 0 1-172-20.7c-6-1.7-12-4-16.9-10 13.6-7.5 28.1-8.6 42.1-10.3zm52.9 42.7c34 4 66 4.9 97.7 3.2.3.8.5 1.6.5 2.5-.4 27 2.4 8.7-22.3 67-2.4 5.7-2.2 5.7-7.3 2.2a54.7 54.7 0 0 0-63 0 66 66 0 0 0-26.4 41.2c-3.6 14.9-4 30 .5 44.6 9.3 30 26.7 53.7 55.9 67.4a96.4 96.4 0 0 0 36.6 9.4 82 82 0 0 0 53.3-17.7 101.9 101.9 0 0 0 36.7-57.1c4.5-16.3 2.1-32.5-3.1-48.3a52.3 52.3 0 0 0-15.5-25 59.7 59.7 0 0 0-34-12.7c-7.2-.6-21.8.3-21.8.3s13.7-27.7 18-46.3c2.5-11 5.3-15.4 3.3-28.2A765 765 0 0 0 530 155c3.4-.7 6.8-1.5 10.2-2.6 3-.9 5.9-2.1 10-3.7-3.2 19.9-5.6 43.7-8.3 62.8-8 56.6-15.4 80.6-22 124.3-6.6 44-25.3 132.8-30.3 177-.7 6.7-3.8 9.6-9.5 12-35.4 14.3-63.7 16.5-101.3 14.7-23.4-1-37.3-4.4-59.9-9.8-4.4-1-17.8-3-22-4.8-13-5.8-11.9-12.8-13.9-29.6-19.4-131.4-31.3-175.3-51.8-306-2.5-15.7-5.3-31.2-8-46.7 33 17.8 60.3 20.5 96 24.7zM125.7 589.2l.9.2-.2 10.3-6.8 10.3h-.4c-.1 0-13.4-1.7-21-6.4-8.2-4.9-13.9-10-16.8-20.3-2.4-8.5-2.7-14.5 2-23.3 7-12.8 15.6-17.4 30-15.6a58.3 58.3 0 0 1 27 13.4l.3.3 2.5 11.8-9.5 10.9-.5-.3-2-1c-2.4-1.5-6.4-3.9-9.5-5.3l-6.6-2.8-2.6-.6c-1.3-.2-2.8-.4-4.3-1-7.3-3-10.2 1.7-11 3.4a64.4 64.4 0 0 0 12.8 10.5l2 .7 4.5 1.6c2 .9 5.2 2 9.2 3.2zm360.6-145.9c.4-34.1 27.5-213.4 33.3-242.4C521 232 501.5 383 486.3 443.3zm-192.8-1.5c-15-44.2-38.4-208-38-238 12 60.8 32 182.7 38 238zm-105.9 163a130 130 0 0 1-4.8 15.3 225 225 0 0 0-4.2 12l-.2.6-9-.2-10.2-10.3.1-.5c.7-1.9 1.5-3.1 2.1-4.2 1-1.6 1.7-3 2.2-5.6v-.3c.6-4.5 1-7.5-.9-11.5-3.3 1.1-4.7 4.2-6.4 8l-1.3 2.7a35 35 0 0 0-4.4 13.3v1l-14-5-7-11.4 9.3-23.3 8.6-22 13.1-30.8 13.5 2 3.7 9.2-12.2 32.8c5.4-2.3 10.8 1 15.6 3.8 7.1 4.2 9.3 12.4 6.4 24.4zm114.7-135c25 27.2 56.3 33.7 90.5 31.6 33.3-2 65.3-7.4 89.8-34.6-27 40-67.1 45.6-109 44-29.5-1.2-55.1-12.5-71.3-41zm318.2 72.5 29.4 77.4-10.5 4.1-13-4.3-.2-.4-28.9-75.7 16-7.7 7.1 6.4v.2zM483.3 620l2.3 17.7-.7.1c-17 2.8-30.5 4.9-46.8 6.2h-.1l-13.7-5.7v-.4l-.7-3.4a40 40 0 0 1-1.2-12.8V617.8l.7-.1a681.7 681.7 0 0 1 15.5-1.1l14.6-1c5.5-.5 10-1.6 14.9-3.2h.3l14.9 7.6zm231.8-29.9a580.7 580.7 0 0 1-12.9-25.7l-9.5-21-.1-.2-9-7.2-11.2 4.7 1.6 6.4h-1.1c-4.5.4-8.8.8-13.1 2.8-17.7 8.3-18.3 28.2-11.3 43.1a27 27 0 0 0 24.3 16.5 27.2 27.2 0 0 0 23.1-13.4l6.7.7 12.9-6-.4-.7zm-36 0c-.5 1.3-1.6 2.8-3.2 4.5-.6.8-1.4 1-2.4 1-2.7-.5-6-4.3-7.6-7.6-2.1-4.5-2.7-7.5-.6-13.7a13 13 0 0 1 7.4-8.3l7.5 17.4c0 .6.1 3.6-1.1 6.6zm-106-12a33.7 33.7 0 0 0-21.4 14.8 31.9 31.9 0 0 0-4.4 24.2c4.4 18.6 20 22.3 36.2 22.3l6.5-.1c7.2-.4 13.8-4.5 18.3-11.3 5-7.8 6.3-17.5 3.2-25.4-5.5-14.6-19.9-28.5-38.4-24.6zm16.5 41.1c-1.3 2-3.5 3.2-6.5 3.7a9 9 0 0 1-7.6-2.1 13.3 13.3 0 0 1-4.2-7.5 13 13 0 0 1 1.6-9.6 8 8 0 0 1 5.3-3.6c1.2-.3 2.4-.4 3.5-.4 3.8 0 7.2 1.8 8.9 8.8 1 4.6.7 8.2-1 10.7zm-43.1 15.3.4 12.2-.4.3c-.1 0-11.9 6.3-20.8 7l-4.8.1c-7.4 0-13.8-1.6-20.6-7-7-5.7-10.6-10.3-11.8-20.3-1.8-14.5 2.7-23.2 15.4-30 10.5-5.8 25.5-5 29.8-4.7h.4l8.9 8.3-1.5 14.4h-.6l-2.2.3c-2.8.2-7.4.6-10.8 1.2l-7 1.6c-.8.2-1.6.6-2.5 1-1.2.6-2.5 1.2-4.1 1.6-7.6 1.8-7.3 7.3-7 9.1a64.5 64.5 0 0 0 16.5 1.2l2-.5 4.7-1.3c2.2-.5 5.3-1.5 9.3-2.8l.9-.2 5.8 8.5zm-287.9-36c-4.7-9.9-5.2-10.4-9.5-12.7l-.7-.4c-8-4.4-15.4-4.7-21.7-4.5-7.7.4-9.2 1-17.1 4.7-8.8 4-14 9.6-16.5 18.3-2.7 9.8-.2 16.8 4.7 24.8a32.5 32.5 0 0 0 21 15.6 41 41 0 0 0 10.9 1.8 23.7 23.7 0 0 0 18-8 48 48 0 0 1 4.6-4l.4-.2-2.2-9.8-11-3.7-.4.4a18 18 0 0 1-11.8 6.8c-5.3 1-8.9 0-12.9-1.8l-1.9-4.1-.5-4 2-7.3 23.2 5.8 22 4 .2-.7c2.2-7.5 2.8-13.6-.8-21zm-30.3.5h1.8c1.8.1 4.3 1 5 1.4l.1.3-6.9-1.7zm188 2.1 5.9 15.2-14.3 39-20.3 39-12.7-2.8-8.3-6.2L377 657 355 616l-3.1 10.8-1-.7c-2.1-1.9-4.1-2-6.9-2l-2.3-.2c-4.1-.3-6.3 0-8.3 7.4l-2 16.2-.4 16.3-15-3.4-9-9 3.1-24.4.2-16.2-4.4 12-.9-.7c-2-2-4-2.2-6.8-2.5l-2.2-.3c-4.2-.5-6.3-.5-8.8 6.8l-3.1 16-1.5 16.3L268 654l-8.5-9.7 4.7-24 2.1-29 12.5-3.8 5.7 9.7 2.9-1a28.9 28.9 0 0 1 18-.7l.4.1 4.5 10.8v-8.5l12.3-4.6 6.3 9.3 2.8-1.1a28.9 28.9 0 0 1 18-1.9h.3l4.7 9.3 12-6.3 9 11 13 19.6 5.7-13.7 6.8-17.4 15-1z"/><path d="M507 646.8c-6.1-3.9-9-8-10.3-14.5-1.6-8 .6-14.1 7.2-20.8 5.2-5.3 10.3-6.4 17.4-7.8h.2c2.7-.6 5.9-.7 9-.7 3.8 0 7.3.2 8.8.4l-.8 7c-2.6.3-12.8 1.5-19.3 3.3-9 2.6-17.2 6.2-15.9 15 .8 4.9 4 7.2 7.4 9 1.2.7 2.4 1.4 3.8 2 8.7 4.6 23.7-.2 27.9-1.8l.4 6.4A60 60 0 0 1 525 650c-7.6.5-12.2.6-18-3.1zm-148.7-256a72.2 72.2 0 0 0 49.4 7.3c18-4 34-12 46.6-25.9 5.9-6.5 9.5-14.5 13.6-22.2a77.4 77.4 0 0 0 10.9-38.5c-.4-15.3-4-29.5-11.6-42.7-3.2-5.5-7.6-10-13.3-13.2a73 73 0 0 0-36.4-7.9c-3.8 0-8.5-1.2-11.2.5-3 2-3.2 7.2-4.7 11l.1.5c8 .7 15.6-.3 22.6-4.8a6.2 6.2 0 0 1-3.3 4.7 39.6 39.6 0 0 1-46.2-8l-.5-.6c-1-1.4-1-2.7.2-3.9 1.3-1.2 2.7-1 3.8.3 2.2 2.7 5.2 4.2 8 6 1.1.8 2.8 2 3.3-.3.4-1.7 4-3.6.2-5.6-3.2-1.6-6.2-3.6-9.5-5.1-9.8-4.7-20.2-7-31-5a54.5 54.5 0 0 0-44.7 46.8c-.2 1.8-.2 3.7-.8 5.3-5.6 14.5-2.9 28.7 1.8 42.5 9.2 27 27.8 46 52.7 58.8zm343.5 201.6-2.7-5.3-3 1-.1.3s-5.8 11.5-12.7 14.2l-1.3.6c-8 3.2-14.7 6-20.8-4.8-4.2-7.6-5.8-16-4.5-24.7a19.4 19.4 0 0 1 20-17c5.4 0 10.5 1.2 10.6 1.3l1.2.3-2.6-9 3.8-1.6 9.4 18.6 10.2 22.8-7.5 3.3zm-8.8-6.5-5.7-12.2-5.3-10-7.2-2.6h-.2c-.5.2-12.4 3.2-13.8 12.4-1 6.3-1.6 9.8 1.7 16 4.6 8.4 9.1 11 13.3 11 2.2 0 4.3-.8 6.2-1.7 3.4-1.6 10-11.5 10.7-12.6l.3-.3zm-237.5 40.8-16.1 1.4.3 11.6 21.7-1.7c5.4-.5 10.7-1.6 16-2.7l4-.9-1.4-10c-8.1 1-16.4 1.6-24.5 2.3zm117.3 5c-6-3.6-10.2-9.3-11.5-15.5-1.7-7.6.2-16.4 4.7-22.2 2.3-3 6.2-6.5 12.2-6.7l3.6-.1c13 0 22.2 3.5 25.9 18a27 27 0 0 1-2.5 20.7c-3 4.8-7.4 8-13 9.4-6.3 1.5-13.4.2-19.4-3.6zm2-7a16.2 16.2 0 0 0 14 1c10-3.8 15-11.1 12.8-19.3-1.8-7.1-10.2-13.5-24.2-10.6-8.2 1.7-11.7 10.6-10.2 18.2.8 4.6 3.5 8.4 7.5 10.7zm43-77.6-4 1.9 15.6 40.6 11.3 29.2 4-1.2-9-23.5-17.9-47zm-410.3 85.6c-6.6-8-7.3-17.4-2.2-27.3 4.8-9.2 12-13.8 21.6-13.8h.6c6.8.2 6.8.2 16.6 4l2.8 1c7.4 2.8 10.8 9.6 9.2 18.3l-22.9-4-21.8-5.3-.2.7c-.5 2-1 3.7-1.6 5.3-1.5 4.3-2.7 8-.8 13.3a18.7 18.7 0 0 0 12.7 12.5 19.1 19.1 0 0 0 20.2-4.2l4.2 1.7-2.5 1.9c-2 1.5-3.7 2.8-6.5 3.8-5 1.7-8.6 1.9-14.4.5a24.1 24.1 0 0 1-15-8.4zm7.5-29.4 14.7 4 17.2 3-.4-1.1c-2.1-6.7-6.4-11.2-12.3-12.8-6.7-1.9-15 .8-18.6 6l-.6.9zm125.4 9.8c-5.5.6-9 2.4-12.8 6.7l-1.3 1.4-.2-12.8-3.6.8-1.4 16.5-1.4 14.6-.1.7-.2 6.1-.2 10c1 .5 4.6 1.8 7.5 2l3-30.4c2.3-5.1 5.5-7.7 10.7-8.8 2.6-.5 4.4 0 6.5.5l3 .7 2-6.2c-4-1.9-6.9-2.4-11.5-1.8zm-165.1-23.3c-4-2.3-6.9-1.5-10.6-.6-2 .5-4.5 1.1-7.4 1.1h-1l6.2-17.2 10-26.5-6-1-7.4 18.2-6.7 18-7.3 20.5-4.4 15.2 6.5 2.5 4.6-12.4c2.7-6.8 8.2-13.4 15.7-11.4 3 .8 5.4 2.6 7 5.3 2 3.3 2.5 7.5 1.4 11.6L172 629l3.5.1 9-27.3c-.9-5.5-3.4-8.7-9.2-12zm242 27-6.1-.7-15.3 34.2-22-31.2-5.4 2.6 11 18.8 11.8 17.4-4.2 14.6-7.5 16 5.8.5 19.3-37 12.5-35.2zm-320-31.2-2-3.9c-1.7-3.4-3-7.1-.9-11.6 4-8 12.8-6.1 21.7-3 6.3 2.2 15.4 7.1 17.7 8.4l4.6-5.3c-2-1.8-9-7.6-14.6-10l-.3-.1c-5.2-2.3-9.2-4.1-14.3-4.1-1.3 0-2.8.1-4.3.4-9.3 1.6-14.6 5.5-18 12.8a20.5 20.5 0 0 0 0 17.8c2.8 6.4 6.6 9 13 13a60 60 0 0 0 17.8 5.7l3.3-5.5c-4.3-1.2-19.3-5.9-23.8-14.6zm198 22.8c-5.5.3-9 1.9-13.2 5.9l-1.3 1.3.6-12.8-3.7.6-2.4 16.4-2.4 14.4-.2.8a3261 3261 0 0 0-1.4 16c1 .5 4.5 2.1 7.4 2.4l5-30v-.2c2.5-4.9 5.9-7.3 11.2-8 2.6-.4 4.4.2 6.5 1l2.8.8 2.4-6a18 18 0 0 0-11.3-2.6z" fill="#f31d1d"/><path d="M513 634.7a68 68 0 0 0 14.5-.4c4-.7 9.4-2.7 11.2-3.4l2.1 3.5c-2.2.8-8.4 3-12.6 3.1-7.1.4-12.2-1.3-15.2-2.8zm-77.2 4.7-.3-12.2-9.5-5.2 1.3 14 8.5 3.4zm215.4-74.6c-3.4 7.3-3.8 12-1.6 20.7 1.7 6.9 6 12 8.7 14.7-1.9-4.1-4.8-11.4-5.7-18.4-1-9 1.5-16 8.5-23.6 3.1-3.4 12.7-4.5 17-4.9l-3.5-2.4h-.8c-3.6 0-16.2 1-22.6 14zm-199.9 54.4c-8 .7-14.2 1-20 1.2l7 4 28.3-2.1c2.7-.3 5.4-.9 8-1.5l1.4-.3-8-4.1a81.2 81.2 0 0 1-16.7 2.8zm48.3-10a37.1 37.1 0 0 1 18-8.8 74.4 74.4 0 0 1 17.4-1.6l-3.4-3.5h-.3c-2.4 0-12 .1-18 2a34.8 34.8 0 0 0-17.6 11.8c-4 4.7-3.7 12.6-3 18.1.6-6 2.2-13.6 7-18zm-76.6-486c-5-1-9.1-1.4-13.8 1.1 4.8 0 9 .8 13.8-1zm-26.8 135.6c1.6.5 2.4.4 3-1.5 2-5.9 4.2-11.7 6.5-17.5 15-37.1 22.8-51.5 20-69.7l-6.5.4v.5c4 23-4.6 30.5-9.4 42.4-6.6 16.1-8.9 22.8-16.6 38.4-2.4 4.8-2.2 5.4 3 7zm10.6 356.3-3.9-6.7-11.1 28.7 3.7 5.3 11.3-27.3zm4.8-455c2.3 2.2 4.1 3.7 5.4 5.4l7.8-.3c-.6-2.8-1.5-5.6-2.6-8.7-3.3-9.1-4-18.1-1.1-27.9-4 .4-7.6 1.2-10.8-.2-2.5-1.2-2.8 0-3.1 1.7-1.1 5.4-1.6 11-.7 16.4.8 5.3-.1 9 5 13.7zM678.4 542l5.1 4 4-1.8-4.5-4.4-4.6 2.2zm-63.2 1.6-4-3.2-7 3.8 5.6 2.3 5.4-3zm-48.8 40.4c-11.2 5.6-14.2 13.9-15.4 24.7-1.4 14 7.6 23 18.2 25.7-7-5.8-13.7-18.5-12.4-27.6 1.5-9.8 4.9-15.5 12-20.1 3.2-2.1 7.5-3 13.2-2.7a93.2 93.2 0 0 1 11.6 1.2c-5.6-4.2-19.6-5-27.2-1.2zm43.4-33.6-5.7-1.3 5.9 16 20 50.8 5.6 1.9-19.4-52.3-6.4-15zm-203.4 55.4 3.5 6.6 7.1.7-3-7.8-7.6.5zM598 608c-.7-3.2-4.7-7-8.3-8 .4.7.9 1.2 1.5 1.9l.8 1c1.2 1.4 2.5 3.4 3 7.1.4 3-.2 4.9-.8 6.4l-.2.8c-.3.8-.6 1.4-.7 2.1 3-3 5.5-7.6 4.7-11.3zm89.9-23.3-8.3-17.8-3-.9 3.3 8 3.9 8.7 4 2zm10.8 8.3-.4-1-.4 1h.8zm-11.5-4.6-3.7-1.6-.8 4.7c-.1 1-1 2.1-2 3.4 1-.5 2-1 3.4-2.4a30 30 0 0 0 3-4zm-4.2-35.9-1.6-3.5-4.6-3.7.9 3.4 5.3 3.8zM235 605l-.4-.6-11.9-3.3-1.3.3 9.4 2.5 4.3 1zm7.2 1.4-1.1-2-2.3-1.7-.3 1 1 2.1 2.7.6zm-120.4-10 .3-4a70 70 0 0 1-11-3.7 68 68 0 0 1-12.2-8c1.6 2.8 4.8 7.2 10.8 11 3.5 2.3 9.8 4 12.1 4.7zm-22.3-46.7c-5.9 1.6-10.2 8.1-12.8 13.1 3.9-4.6 9.6-9.9 16-10.7l4.6-.3c5.4 0 9.6 1.4 15.2 3.4a75 75 0 0 1 15.1 8.8l-.8-4.8c-1.5-1.1-10-7-16.2-9-7.6-2-13-2.8-21-.5zm130.9 35.1-3 .1c-8.7.5-14.4 2-21 8-5.5 4.8-8.6 8.9-9.6 16.5a22 22 0 0 0 2.7 15.2l-.7-2.8c-.9-3.7-1.8-7.3-.3-12.2 2.2-6.8 5-11 11-15.7a25.6 25.6 0 0 1 21.5-5.6c8.1 1 13 3 19.8 6.5l-3.5-5.7a33.6 33.6 0 0 0-17-4.3zm18.5 46.7-.8-4.3-5.8-2.4 1.6 5.5 5 1.2zm-84.5-94.9 2 5.2 7 1-1.5-5-7.5-1.2zm4.2 65.3c.4 2.1 0 5.1-.5 8l-.2 2.2c-.4 2.8-1.2 4.3-2 6-.5 1-1.1 2.1-1.6 3.8l3.6 4.5 1-2.6c1.7-4 2.5-5.9 3-10 1-8.1 0-10-3.3-11.9zm7.3-20c-4-2-7.4-1.8-11.6-.7l-1.8 4.3c2.1-.8 4-1.2 6.2-1.2a19.3 19.3 0 0 1 15.6 7.7c-1-4.5-3.8-7.8-8.4-10zm-28.1-9.5-6.8 19.3-7 16.7 3.5 6 6.7-21.5 8.1-22 11-26.7-2-4.1-6.4 15.2-7.1 17.1zM228 634c3 0 5.1-1 7.5-2.2 1.2-.6 2.4-1.2 3.9-1.7l-.8-3.6a20 20 0 0 1-9.9 5c-3 1-5.5.6-8 .3a80 80 0 0 0-2-.2c2.7 1.7 5.4 2.4 9.3 2.4zm153.5 39.6 4.7-12.6-5.6-1.6-4 11.8-5.4 13 4.2 2.7 6-13.3zm-109.6-56 2.3-15-4.4-4.9-.4 9.5-1.7 11.5-2.3 12.9-2 12 3.6 4.5 1.8-14.7 3.1-15.8zm-.7-23.8 5.3 5.8 4.8-.6-4-7-6 1.8zM386 657l-21.7-35-4.4-3.8 20.7 36.8 5.4 2zm-13.7-42-6.7-7.8-8 4 7.6 6.7 7-2.9zm-66-8.6-3-7.3a19 19 0 0 0-9.5-.3c-3.7.6-5.4 1.4-8.6 3.4l-.4 6.3c3.3-2.3 6.2-3.4 10.3-3.8 4.4-.4 7.5 0 11.2 1.7zm9.3-6.4 5.7 5.5 4.7-1-4.5-6.7-5.9 2.2zm22.7 3.6c-3.7.8-5.4 1.8-8.4 4v6.2c3.2-2.5 6-3.7 10-4.4 4.4-.7 7.5-.5 11.3 1l-3.4-7.1a19 19 0 0 0-9.5.3zm-19.2 5-4.6-4.5.2 9.4-1 11.6-1.5 13-1.1 12.2 3.8 4.2.9-14.8 2-16 1.3-15z" fill="#1bc43f"/><path d="M456.7 274c9.8 4.2 13.8 24 10.8 34.3-2 6.8-7.2 8.4-12.5 3.7-3.1-2.8.4-9.8-3.3-20.2a29.5 29.5 0 0 0-7-10c-1.9-1.8-4-4-2.4-6.8s4.5-3.2 7.5-2.9c2.4.3 4.7 1 7 2z" fill="#fc7e83"/><path fill="#fff" d="M359.4 311.8c-3-.6-5.5-1.5-7.4-2.6-1-.6-2-1.4-2.9-2.4l-.2-.2c-.7-.7-1.3-1.3-1.3-2.2-.2-2.9-.2-5.8 1.4-8 .9-1.2 1.9-2.3 3-3.4 1-1 2-2 3.2-2.3 1.7-.4 5-1 6.5-1 2.2 0 4.6.8 6.5 2.4 3.7 2.9 3.5 8.7 2 13.2-.7 2.4-2 4.3-3.7 5.5-1.9 1.3-4.3 1.6-7.1 1zm54.7-17.8h-.6c-4.1 0-7.7 1.4-10 3.8-1 1-2.7 3.2-3.5 4.5-.6 1-.5 2.4-.5 3.7.1 2.9 1 5.3 2.7 6.9 3 3 9 5 13.3 3 2-1 3.2-2.5 4.3-5 1.2-3 1.8-5.7 1.8-8 0-4.3-2.6-8.7-7.5-8.9z"/><path d="M377.2 321.7h-3l-1.2.1c-1.4 0-2.8.7-3.8 1.8-.8 1-1.3 2-1.6 3-.4.8-.8 2-1 3.3-.4 4.1 2 8.2 5.8 9.7 1 .4 2.1.7 3.2.7 1 0 2-.3 3-.7a8 8 0 0 0 4-4.7c.7-1.9.8-3.8.7-5.4 0-1.6-.1-3.3-1-4.8a6.5 6.5 0 0 0-5.1-3zm2.1 7.8c0 1.3 0 2.8-.4 4a4 4 0 0 1-2 2.5c-.8.4-2 .3-3 0-2.2-1-3.7-3.4-3.5-5.6.1-.9.4-2.1.7-2.8.2-.7.5-1 .9-1.4v-.1c.3-.3 1.2-.6 1.5-.6l2.3.1.9.1c1 0 1.8.7 2.2 1.2.3.6.4 1.5.4 2.6zm-6.4-20.2c1.3-2.6 2-5.7 2.2-9.4.1-3.7-.7-6.8-2.5-9-2-2.7-5.3-4.4-9.1-5-3.6-.5-9.1.6-11.9 2.2-2 1.2-3.5 3.1-4.9 4.8a13.6 13.6 0 0 0-3.2 9.4v.5c0 1.3 0 2.8.6 4 .6 1.5 1.8 2.6 3 3.6l.1.2c2.6 2.4 5.8 3.6 9 4.5 2.1.7 4 1 5.8 1a11.8 11.8 0 0 0 10.9-6.8zm-2.7-4c-.7 2.4-2 4.3-3.7 5.5-1.9 1.3-4.3 1.6-7.1 1-3-.6-5.5-1.5-7.4-2.6-1-.6-2-1.4-2.9-2.4l-.2-.2c-.7-.7-1.3-1.3-1.3-2.2-.2-2.9-.2-5.8 1.4-8 .9-1.2 1.9-2.3 3-3.4 1-1 2-2 3.2-2.3 1.7-.4 5-1 6.5-1 2.2 0 4.6.8 6.5 2.4 3.7 2.9 3.5 8.7 2 13.2zm48-14.5a13.3 13.3 0 0 0-10.5.2h-.2c-2.4 1.3-4.7 2.4-6.8 4.2-.6.4-3 3.3-3.4 3.8a9.8 9.8 0 0 0-1.7 4.8c-.3 3.2.3 6.5 1.7 9.2 2.7 5 8.9 7.7 14.2 7.7.9 0 1.7-.1 2.5-.3a12 12 0 0 0 7.7-4.7c2.3-3.2 3.3-7.4 3.6-9.6 1-5.8-1-12.8-7.1-15.3zm-16 22.1c-1.6-1.6-2.6-4-2.7-6.8v-.1c0-1.3 0-2.7.5-3.7.8-1.3 2.5-3.5 3.5-4.5A13.7 13.7 0 0 1 414 294c4.9.2 7.4 4.6 7.5 8.9 0 2.3-.6 5-1.8 8-1 2.5-2.4 4-4.3 5-4.4 2-10.3 0-13.3-3zm-37.7-16.7c.3.7.7 1.7.7 2.9 0 1.5-.7 2.9-1.9 3.7-1 .7-2.1.8-3.2.9h-.6c-1 0-1.7-.1-2.4-.4a5.3 5.3 0 0 1-3.4-5.5c.2-2.4 1.9-4.8 4.5-5h1.5a5.4 5.4 0 0 1 4.8 3.4zm51 9a5.6 5.6 0 0 1-4.4 1.7h-1.4c-2.4-.6-4.3-2.5-4.4-4.7-.2-2.4 1.2-3.6 2.5-4.4a9 9 0 0 1 1.4-.6h.2a4 4 0 0 1 2-.5c1.6.1 2.7 1 3.5 1.8.8.9 1.4 1.8 1.5 2.8.3 1.4 0 2.7-1 3.8z"/><path d="M478.3 281.8a65.7 65.7 0 0 0-7.6-16.3c-4.9 0-10.1 0-15.9.2-32.5 1-74.3 8.7-104.8 8.5-20.2-.2-36-.6-48.4-1.3a89 89 0 0 0-3.2 10.6c-3.6 14.9-4 30 .5 44.6 9.3 30 26.7 53.7 55.9 67.4a96.4 96.4 0 0 0 36.6 9.4 82 82 0 0 0 53.3-17.7 101.9 101.9 0 0 0 36.7-57.1c4.5-16.3 2.1-32.5-3.1-48.3z" opacity=".5" fill="#cc693b"/></svg>
